<svg width="596" height="426" viewBox="0 0 596 426" fill="none" xmlns="http://www.w3.org/2000/svg">
<path d="M189.243 125.159V56.8071C189.243 56.1012 188.671 55.5291 187.966 55.5291H139.549C138.844 55.5291 138.272 56.1012 138.272 56.8071V125.159C138.272 125.865 138.844 126.437 139.549 126.437H187.966C188.671 126.437 189.243 125.865 189.243 125.159Z" fill="#F0F3F8"/>
<path d="M470.274 143.588H387.055C386.491 143.588 385.949 143.363 385.55 142.964C385.151 142.564 384.927 142.022 384.927 141.458V70.0897C384.927 69.5248 384.702 68.983 384.303 68.5836C383.904 68.1841 383.363 67.9597 382.798 67.9597H212.087C211.522 67.9597 210.981 68.1841 210.581 68.5836C210.182 68.983 209.958 69.5248 209.958 70.0897V141.458C209.958 142.022 209.734 142.564 209.335 142.964C208.935 143.363 208.394 143.588 207.829 143.588H124.632C124.068 143.588 123.526 143.812 123.127 144.211C122.728 144.611 122.504 145.153 122.504 145.717V292.713C122.504 293.278 122.728 293.82 123.127 294.219C123.526 294.619 124.068 294.843 124.632 294.843H207.893C208.458 294.843 208.999 295.067 209.398 295.467C209.798 295.866 210.022 296.408 210.022 296.973V368.341C210.022 368.906 210.246 369.448 210.645 369.847C211.045 370.246 211.586 370.471 212.15 370.471H382.862C383.426 370.471 383.968 370.246 384.367 369.847C384.766 369.448 384.99 368.906 384.99 368.341V296.973C384.99 296.408 385.215 295.866 385.614 295.467C386.013 295.067 386.555 294.843 387.119 294.843H470.291C470.855 294.843 471.397 294.619 471.796 294.219C472.195 293.82 472.419 293.278 472.419 292.713V145.717C472.419 145.436 472.364 145.158 472.256 144.898C472.148 144.639 471.989 144.403 471.79 144.205C471.59 144.007 471.354 143.851 471.094 143.745C470.833 143.639 470.555 143.585 470.274 143.588Z" fill="#F0F3F8"/>
<path d="M466.591 77.4084H398.286C397.58 77.4084 397.008 77.9806 397.008 78.6864V127.135C397.008 127.841 397.58 128.413 398.286 128.413H466.591C467.297 128.413 467.869 127.841 467.869 127.135V78.6864C467.869 77.9806 467.297 77.4084 466.591 77.4084Z" fill="#F0F3F8"/>
<path d="M485.668 261.769H383.854C383.148 261.769 382.577 262.341 382.577 263.047V270.165C382.577 270.871 383.148 271.443 383.854 271.443H485.668C486.373 271.443 486.945 270.871 486.945 270.165V263.047C486.945 262.341 486.373 261.769 485.668 261.769Z" fill="#A8B9DF"/>
<path d="M479.605 271.443H389.92C389.215 271.443 388.643 272.015 388.643 272.721V361.316C388.643 362.022 389.215 362.594 389.92 362.594H479.605C480.311 362.594 480.883 362.022 480.883 361.316V272.721C480.883 272.015 480.311 271.443 479.605 271.443Z" fill="#A8B9DF"/>
<path d="M473.926 261.769H372.113C371.407 261.769 370.835 262.341 370.835 263.047V270.165C370.835 270.871 371.407 271.443 372.113 271.443H473.926C474.632 271.443 475.204 270.871 475.204 270.165V263.047C475.204 262.341 474.632 261.769 473.926 261.769Z" fill="#C4CFE6"/>
<path d="M467.988 272.721V361.329C467.988 361.668 467.853 361.993 467.614 362.233C467.374 362.472 467.049 362.607 466.711 362.607H378.162C377.823 362.607 377.498 362.472 377.259 362.233C377.019 361.993 376.885 361.668 376.885 361.329V272.721C376.885 272.382 377.019 272.057 377.259 271.817C377.498 271.578 377.823 271.443 378.162 271.443H466.711C467.049 271.443 467.374 271.578 467.614 271.817C467.853 272.057 467.988 272.382 467.988 272.721Z" fill="#E7EBF6"/>
<path d="M457.149 280.904H388.886C388.18 280.904 387.609 281.477 387.609 282.182V299.035C387.609 299.741 388.18 300.313 388.886 300.313H457.149C457.854 300.313 458.426 299.741 458.426 299.035V282.182C458.426 281.477 457.854 280.904 457.149 280.904Z" fill="#C4CFE6"/>
<path d="M457.149 308.692H388.886C388.18 308.692 387.609 309.265 387.609 309.97V326.823C387.609 327.529 388.18 328.101 388.886 328.101H457.149C457.854 328.101 458.426 327.529 458.426 326.823V309.97C458.426 309.265 457.854 308.692 457.149 308.692Z" fill="#C4CFE6"/>
<path d="M457.149 336.476H388.886C388.18 336.476 387.609 337.048 387.609 337.754V354.607C387.609 355.313 388.18 355.885 388.886 355.885H457.149C457.854 355.885 458.426 355.313 458.426 354.607V337.754C458.426 337.048 457.854 336.476 457.149 336.476Z" fill="#C4CFE6"/>
<path d="M411.24 280.904H434.812C434.812 282.204 434.296 283.45 433.378 284.369C432.46 285.287 431.214 285.803 429.916 285.803H416.127C414.83 285.801 413.587 285.284 412.671 284.366C411.755 283.447 411.24 282.202 411.24 280.904Z" fill="#E7EBF6"/>
<path d="M411.24 308.692H434.812C434.812 309.992 434.296 311.238 433.378 312.156C432.46 313.075 431.214 313.591 429.916 313.591H416.127C414.829 313.591 413.583 313.075 412.665 312.156C411.747 311.238 411.231 309.992 411.231 308.692H411.24Z" fill="#E7EBF6"/>
<path d="M411.24 336.476H434.812C434.812 337.775 434.296 339.022 433.378 339.94C432.46 340.859 431.214 341.375 429.916 341.375H416.127C414.829 341.375 413.583 340.859 412.665 339.94C411.747 339.022 411.231 337.775 411.231 336.476H411.24Z" fill="#E7EBF6"/>
<path d="M384.054 370.471H381.866C381.563 370.471 381.272 370.351 381.057 370.137C380.843 369.923 380.722 369.632 380.721 369.329V362.594H388.592L385.093 369.836C384.996 370.029 384.848 370.19 384.664 370.302C384.48 370.415 384.269 370.473 384.054 370.471Z" fill="#C4CFE6"/>
<path d="M396.966 370.471H394.765C394.462 370.471 394.172 370.351 393.958 370.137C393.744 369.922 393.624 369.632 393.624 369.329V362.594H401.495L397.996 369.836C397.9 370.027 397.753 370.188 397.571 370.3C397.389 370.412 397.18 370.471 396.966 370.471Z" fill="#A8B9DF"/>
<path d="M462.96 370.471H465.157C465.307 370.472 465.456 370.442 465.595 370.385C465.734 370.328 465.86 370.244 465.966 370.138C466.073 370.032 466.157 369.906 466.215 369.767C466.272 369.628 466.302 369.48 466.302 369.329V362.594H458.43L461.93 369.836C462.026 370.027 462.173 370.188 462.355 370.3C462.537 370.412 462.746 370.471 462.96 370.471Z" fill="#C4CFE6"/>
<path d="M475.949 370.471H478.145C478.295 370.472 478.444 370.442 478.583 370.385C478.722 370.328 478.848 370.244 478.955 370.138C479.061 370.032 479.146 369.906 479.203 369.767C479.261 369.628 479.29 369.48 479.29 369.329V362.594H471.419L474.918 369.836C475.014 370.027 475.161 370.188 475.343 370.3C475.525 370.412 475.735 370.471 475.949 370.471Z" fill="#A8B9DF"/>
<path opacity="0.42" d="M426.323 271.443L402.309 362.594H383.292L407.306 271.443H426.323Z" fill="#F4F7FC"/>
<path opacity="0.42" d="M467.204 271.541L443.211 362.594H412.134L436.149 271.43H466.711C466.881 271.434 467.049 271.471 467.204 271.541Z" fill="#F4F7FC"/>
<path d="M129.417 314.644C128.906 314.644 128.306 314.069 126.778 309.621C123.696 300.675 122.159 296.181 123.346 290.877C123.836 288.696 124.815 286.617 126.778 282.425C128.37 279.017 129.102 278.059 130.209 275.29C131.954 270.936 131.703 269.462 132.589 267.102C135.696 258.795 147.174 254.748 148.166 256.005C148.591 256.533 146.948 257.79 144.466 262.344C142.922 265.108 141.683 268.032 140.771 271.064C138.983 277.428 141.154 278.131 139.451 284.802C138.6 288.095 138.012 288.21 136.284 294.047C135.432 296.918 135.386 297.548 134.436 301.182C132.159 309.826 130.899 314.644 129.417 314.644Z" fill="#A8B9DF"/>
<path d="M119.902 303.546C118.966 304.292 116.548 301.144 108.285 296.151C102.661 292.743 95.6239 289.28 95.0875 289.015C89.6043 286.323 88.2974 286.008 86.3774 283.997C83.9466 281.441 84.5341 280.376 81.0943 275.541C78.4336 271.801 77.6162 271.788 75.56 268.41C73.7976 265.522 71.7286 261.193 72.6566 260.482C73.0824 260.15 74.036 260.716 75.824 261.803C78.5017 263.434 79.153 264.38 80.8389 265.505C83.8189 267.477 84.4362 266.297 87.4417 268.146C88.6507 268.891 89.996 270.314 92.7206 273.164C95.4451 276.014 95.4877 276.329 96.9436 277.654C99.0339 279.554 100.69 280.491 102.478 281.62C105.797 283.684 108.966 285.979 111.963 288.487C118.204 293.974 121.277 302.46 119.902 303.546Z" fill="#A8B9DF"/>
<path d="M74.5723 263.217C77.7311 266.314 80.8559 269.398 84.087 272.367C84.8874 273.113 85.7048 273.846 86.5179 274.578C87.331 275.311 88.1484 276.044 88.9742 276.759L93.9466 281.054C97.2256 283.98 100.668 286.718 104.257 289.254C106.071 290.506 107.94 291.669 109.792 292.871C111.687 294.046 113.503 295.345 115.228 296.76C116.96 298.226 118.492 299.911 119.787 301.774C121.083 303.642 122.178 305.641 123.057 307.738C124.845 311.913 125.845 316.326 126.595 320.693C126.965 322.882 127.284 325.068 127.578 327.258C127.723 328.348 127.872 329.451 128.004 330.555C128.136 331.658 128.229 332.761 128.327 333.869C128.702 338.29 128.761 342.731 128.502 347.16H128.289C127.842 342.764 127.344 338.397 126.663 334.061C126.322 331.892 125.948 329.745 125.543 327.577L124.36 321.085C123.555 316.782 122.75 312.501 121.197 308.492C120.423 306.481 119.47 304.543 118.349 302.703C117.25 300.848 115.934 299.132 114.428 297.591C112.884 296.066 111.204 294.685 109.409 293.467C107.608 292.21 105.752 291.018 103.874 289.825C100.162 287.444 96.3646 285.139 92.8312 282.43C91.0645 281.083 89.3531 279.669 87.7226 278.17C86.901 277.424 86.0879 276.666 85.2876 275.903C84.4872 275.141 83.7082 274.34 82.9334 273.547C79.8353 270.377 76.9886 266.97 74.4191 263.358L74.5723 263.217Z" fill="#899FCA"/>
<path d="M114.091 311.704C113.815 312.424 111.162 311.112 107.076 312.377C104.096 313.302 103.883 314.507 99.8811 316.492C96.999 317.924 94.9896 318.921 92.3629 318.968C89.0083 319.027 88.1654 317.468 83.1462 316.156C80.5793 315.503 77.9444 315.156 75.2961 315.121C66.9691 314.831 62.6013 317.54 61.8265 316.279C60.975 314.903 65.1598 310.06 70.2726 306.733C81.0262 299.734 92.8993 301.408 94.6363 301.68C105.888 303.436 114.611 310.337 114.091 311.704Z" fill="#C4CFE6"/>
<path d="M64.4148 314.149C65.6882 312.945 67.1491 311.957 68.7401 311.223C69.1402 311.04 69.5447 310.874 69.9491 310.695C70.3535 310.516 70.7792 310.401 71.1964 310.269C71.6136 310.137 72.0479 310.026 72.4736 309.906C72.8993 309.787 73.325 309.728 73.7507 309.638C75.5017 309.323 77.2856 309.233 79.0594 309.37C79.503 309.394 79.9449 309.443 80.3833 309.515L81.0432 309.608L81.371 309.659L81.6733 309.706C82.4651 309.851 83.2867 309.949 84.1083 310.026C87.4838 310.313 90.8776 310.313 94.2531 310.026C97.6588 309.732 101.022 309.174 104.47 308.812C106.217 308.604 107.979 308.57 109.732 308.709C110.664 308.8 111.579 309.017 112.452 309.353C113.422 309.713 114.272 310.339 114.905 311.159C116.014 312.541 116.988 314.028 117.812 315.598C118.617 317.213 119.19 318.934 119.515 320.71L119.724 322.022C119.8 322.448 119.826 322.895 119.873 323.334C119.975 324.186 120.005 325.076 120.047 325.945C120.09 326.814 120.073 327.679 120.09 328.544L120.026 331.13C119.882 334.565 119.562 337.99 119.068 341.392H118.855C118.63 337.984 118.536 334.546 118.349 331.168C118.226 327.816 117.87 324.477 117.284 321.174C116.974 319.591 116.484 318.049 115.824 316.578C115.103 315.097 114.256 313.682 113.291 312.347C112.589 311.27 111.06 310.724 109.498 310.409C107.858 310.13 106.198 309.988 104.534 309.983C101.126 309.995 97.7221 310.238 94.3468 310.712L89.2382 311.415C87.5167 311.665 85.7797 311.793 84.0402 311.798C83.6145 311.798 83.159 311.798 82.712 311.743C82.4906 311.743 82.2863 311.713 82.0479 311.687L81.3795 311.593L80.1322 311.419C79.7065 311.372 79.3233 311.27 78.9146 311.257L77.6886 311.159C77.2629 311.159 76.8712 311.159 76.4625 311.159C76.2582 311.159 76.0368 311.159 75.8495 311.159L75.2322 311.193C74.8222 311.203 74.4129 311.234 74.0061 311.287C70.6763 311.635 67.4558 312.675 64.551 314.341L64.4148 314.149Z" fill="#A4B5DD"/>
<path d="M120.166 268.41C118.757 268.533 116.935 263.387 116.207 259.161C115.356 254.211 116.412 252.916 116.207 244.895C116.151 241.711 115.885 238.535 115.411 235.386C114.496 229.461 113.393 227.906 112.508 223.761C110.379 213.775 112.78 203.99 114.091 203.948C114.747 203.926 114.917 206.312 116.471 210.286C117.953 214.086 119.213 215.07 123.07 221.362C125.799 225.823 127.161 228.055 127.557 229.286C129.03 233.853 128.327 237.806 127.293 243.289C126.105 249.576 125.062 249.653 123.07 257.819C121.329 264.938 121.29 268.312 120.166 268.41Z" fill="#C4CFE6"/>
<path d="M114.198 208.676C116.041 214.214 117.808 219.79 119.873 225.213C120.124 225.891 120.392 226.564 120.664 227.228L120.869 227.74L121.077 228.298C121.205 228.673 121.316 229.052 121.405 229.435C121.723 230.936 121.866 232.468 121.831 234.002C121.803 235.49 121.699 236.976 121.52 238.454C121.367 239.923 121.137 241.372 120.933 242.816C120.507 245.7 120.043 248.567 119.766 251.455C119.466 254.341 119.423 257.248 119.638 260.141C119.753 261.587 119.949 263.025 120.226 264.448C120.371 265.155 120.494 265.884 120.626 266.608L120.822 267.694L120.924 268.235L120.992 268.785C121.398 271.699 121.647 274.632 121.737 277.573C121.797 280.508 121.814 283.452 121.673 286.383C121.533 289.314 121.329 292.236 121.158 295.137C120.988 298.038 120.818 300.952 120.796 303.836C120.767 305.28 120.796 306.712 120.843 308.143L120.992 310.273C121.035 310.984 121.175 311.674 121.248 312.377C122.099 318.086 123.338 323.811 124.287 329.588C124.768 332.48 125.186 335.394 125.424 338.329C125.552 339.795 125.611 341.264 125.641 342.734C125.641 343.467 125.641 344.204 125.641 344.937C125.641 345.669 125.577 346.402 125.547 347.135H125.335C124.679 335.437 120.911 324.373 118.996 312.718C118.576 309.756 118.433 306.761 118.57 303.772C118.595 302.294 118.706 300.828 118.787 299.355C118.868 297.881 119.013 296.428 119.149 294.971L119.953 286.272C120.222 283.371 120.435 280.474 120.554 277.569L120.579 275.396C120.579 275.03 120.579 274.668 120.579 274.306L120.545 273.219C120.515 272.495 120.515 271.767 120.46 271.043L120.256 268.878C120.209 268.15 120.051 267.443 119.941 266.723C119.83 266.003 119.711 265.3 119.57 264.572C119.43 263.843 119.319 263.123 119.2 262.395C119.081 261.666 118.996 260.938 118.932 260.205C118.302 254.356 118.532 248.409 119.153 242.594C119.447 239.685 119.83 236.801 119.928 233.968C119.988 232.579 119.889 231.189 119.634 229.823C119.558 229.495 119.485 229.167 119.387 228.847L119.234 228.374L119.047 227.859C118.791 227.163 118.547 226.467 118.315 225.772C117.833 224.378 117.416 222.968 117.008 221.558C116.599 220.148 116.22 218.734 115.862 217.298C115.147 214.457 114.504 211.599 113.985 208.714L114.198 208.676Z" fill="#A4B5DD"/>
<path d="M144.934 311.968C144.624 310.047 149.89 306.763 154.968 306.43C155.513 306.396 155.628 306.43 162.631 307.223C168.37 307.883 169.017 307.947 169.762 308.015C176.799 308.658 175.994 308.015 178.208 308.543C182.61 309.625 182.563 311.432 188.77 313.566C191.15 314.384 192.436 314.558 192.465 315.151C192.529 316.254 188.208 317.323 182.963 318.584C176.505 320.143 173.278 320.923 170.818 320.714C166.135 320.288 165.943 318.461 158.936 315.96C150.196 312.812 145.228 313.77 144.934 311.968Z" fill="#C4CFE6"/>
<path d="M142.899 340.263C142.26 338.735 141.711 337.17 141.256 335.577C141.022 334.785 140.801 333.984 140.609 333.175C140.418 332.365 140.226 331.56 140.073 330.746C139.919 329.933 139.766 329.111 139.647 328.284C139.528 327.458 139.43 326.631 139.349 325.796C139.176 324.12 139.16 322.432 139.302 320.752C139.438 319.036 139.837 317.351 140.486 315.756C140.822 314.945 141.28 314.191 141.844 313.519C142.13 313.181 142.451 312.874 142.802 312.603C143.158 312.343 143.542 312.123 143.947 311.947C144.348 311.787 144.763 311.662 145.186 311.572C145.586 311.478 145.986 311.385 146.382 311.283L148.796 310.716C150.408 310.326 152.039 310.019 153.683 309.796C155.378 309.573 157.096 309.573 158.791 309.796C160.468 310.05 162.117 310.461 163.717 311.023L164.9 311.449C165.296 311.589 165.658 311.696 166.037 311.824C166.416 311.951 166.795 312.054 167.178 312.16C167.561 312.267 167.94 312.382 168.336 312.467C169.89 312.854 171.473 313.165 173.061 313.472C176.237 314.069 179.447 314.529 182.687 314.865C184.304 315.006 185.926 315.155 187.548 315.193C189.176 315.266 190.807 315.218 192.427 315.048L192.478 315.253C190.894 315.783 189.254 316.129 187.591 316.284L186.348 316.407L185.101 316.48C184.27 316.527 183.436 316.531 182.606 316.539C180.941 316.539 179.277 316.467 177.621 316.318C175.965 316.169 174.309 315.973 172.661 315.713C171.009 315.436 169.374 315.07 167.761 314.618C167.357 314.512 166.957 314.375 166.552 314.247C166.148 314.12 165.748 314 165.347 313.843C164.947 313.685 164.534 313.536 164.16 313.387L163.049 312.923C160.047 311.743 157.012 310.92 153.785 310.959C152.161 310.975 150.542 311.132 148.945 311.427C148.136 311.547 147.34 311.743 146.539 311.913C146.143 312.002 145.743 312.105 145.347 312.203C144.965 312.287 144.593 312.411 144.236 312.573C143.554 312.918 142.969 313.428 142.533 314.056C142.109 314.699 141.792 315.407 141.593 316.152C141.222 317.685 141.048 319.26 141.073 320.838C141.073 322.431 141.141 324.033 141.231 325.643C141.282 326.448 141.354 327.253 141.439 328.058C141.524 328.864 141.601 329.673 141.703 330.478C142.095 333.711 142.619 336.94 143.108 340.204L142.899 340.263Z" fill="#A4B5DD"/>
<path d="M138.911 303.81C137.961 303.312 139.971 296.773 143.134 290.864C145.241 286.932 147.318 283.047 151.584 279.503C156.854 275.124 162.504 273.722 166.91 272.636C173.989 270.885 174.93 272.261 179.847 270.259C186.991 267.345 189.681 262.523 190.916 263.387C192.15 264.252 190.716 270.476 186.693 274.22C184.339 276.41 181.235 277.667 179.302 278.446C175.548 279.967 174.015 279.758 172.172 281.62C171.026 282.775 171.282 283.201 169.268 286.374C167.629 288.96 166.769 290.319 165.573 291.393C163.474 293.28 161.937 292.871 155.803 294.298C150.694 295.491 148.14 296.087 145.505 297.736C141.014 300.556 139.634 304.19 138.911 303.81Z" fill="#DDE6F4"/>
<path d="M187.859 268.406C187.791 269.087 187.531 269.736 187.11 270.276C186.901 270.531 186.714 270.817 186.484 271.055C186.254 271.294 186.037 271.532 185.79 271.788C184.813 272.669 183.754 273.453 182.627 274.131C181.514 274.816 180.368 275.444 179.192 276.014C178.6 276.287 178.008 276.559 177.412 276.819C176.816 277.079 176.22 277.33 175.616 277.565L173.802 278.272C173.193 278.498 172.576 278.698 171.963 278.902C170.737 279.328 169.511 279.754 168.264 280.065C165.786 280.819 163.253 281.343 160.733 281.876H160.801C160.06 282.097 159.277 282.391 158.527 282.694C157.778 282.996 157.016 283.337 156.28 283.695C155.543 284.053 154.819 284.445 154.1 284.853C153.381 285.262 152.695 285.706 152.014 286.174C149.287 288.032 146.882 290.323 144.892 292.956C143.92 294.274 143.052 295.666 142.295 297.118C141.562 298.562 140.948 300.064 140.46 301.608C140.341 301.996 140.205 302.375 140.107 302.767L139.805 303.943C139.621 304.739 139.464 305.544 139.289 306.345C139.213 306.746 139.111 307.142 139.043 307.547L138.842 308.765C138.715 309.579 138.561 310.384 138.451 311.197C138.255 312.837 138.004 314.46 137.863 316.109L137.608 318.571L137.395 321.042L137.289 322.273C137.259 322.699 137.233 323.1 137.195 323.513L136.995 325.984L136.654 330.921C136.25 337.537 135.965 344.174 135.667 350.832H135.454C134.78 344.189 134.505 337.512 134.632 330.836C134.692 324.136 135.282 317.451 136.399 310.844C136.539 309.992 136.722 309.191 136.884 308.364L137.135 307.129C137.216 306.703 137.335 306.311 137.438 305.902C137.65 305.08 137.863 304.266 138.076 303.448L138.476 302.23C138.608 301.804 138.783 301.429 138.932 301.029C140.218 297.88 142.006 294.96 144.228 292.385C146.412 289.829 148.885 287.535 151.597 285.548C152.265 285.037 152.955 284.555 153.649 284.087C154.343 283.618 155.049 283.158 155.777 282.723C156.505 282.289 157.233 281.871 157.983 281.475C158.732 281.079 159.485 280.717 160.311 280.376H160.379C161.605 280.014 162.827 279.635 164.062 279.298C164.675 279.132 165.288 278.953 165.897 278.766L167.731 278.229L169.57 277.701L171.393 277.134C171.997 276.943 172.61 276.768 173.21 276.559L175.015 275.946C176.229 275.562 177.387 275.051 178.583 274.625C179.745 274.131 180.916 273.645 182.04 273.075C182.316 272.93 182.61 272.806 182.891 272.649L183.708 272.18C184.27 271.89 184.764 271.515 185.296 271.175L186.029 270.591C186.28 270.404 186.48 270.165 186.71 269.961C187.149 269.539 187.476 269.013 187.659 268.431L187.859 268.406Z" fill="#A4B5DD"/>
<path d="M142.657 260.793C141.229 261.948 140.009 263.34 139.051 264.908C138.796 265.283 138.583 265.688 138.357 266.084C138.131 266.48 137.931 266.885 137.727 267.289C137.523 267.694 137.348 268.116 137.174 268.533L136.905 269.16L136.671 269.799C136.051 271.509 135.57 273.267 135.232 275.055C134.913 276.823 134.624 278.728 134.219 280.559C133.815 282.391 133.329 284.227 132.802 286.038C132.274 287.848 131.733 289.642 131.248 291.448C130.77 293.247 130.412 295.076 130.175 296.922C130.115 297.382 130.06 297.846 130.017 298.307C129.967 298.768 129.94 299.231 129.936 299.695C129.936 300.155 129.898 300.607 129.936 301.071L129.996 302.46C130.09 304.317 130.281 306.175 130.447 308.032L130.958 313.608C131.312 317.323 131.754 321.038 132.095 324.757C132.435 328.476 132.767 332.203 133.074 335.931L133.542 341.524C133.64 342.449 133.691 343.39 133.793 344.315L133.93 345.712L134.104 347.101L133.9 347.156L133.474 345.806L133.112 344.438C132.874 343.522 132.687 342.602 132.474 341.682C132.082 339.842 131.732 337.996 131.422 336.144C131.099 334.291 130.813 332.433 130.571 330.576C130.328 328.719 130.068 326.853 129.86 324.991C129.434 321.259 129.179 317.511 128.979 313.758C128.737 309.997 128.697 306.225 128.859 302.46L128.936 301.041C128.966 300.573 129.034 300.091 129.077 299.614C129.106 299.38 129.123 299.141 129.157 298.907L129.272 298.209C129.34 297.74 129.417 297.276 129.502 296.811C129.817 294.954 130.217 293.114 130.622 291.273L131.201 288.521C131.38 287.605 131.55 286.685 131.699 285.765C132.001 283.92 132.252 282.072 132.516 280.227C132.78 278.382 133.01 276.563 133.432 274.659C133.512 274.186 133.649 273.722 133.772 273.258C133.896 272.793 134.006 272.325 134.155 271.865L134.636 270.501C134.79 270.046 135.007 269.607 135.186 269.164L135.475 268.499L135.807 267.856C136.033 267.43 136.233 267.004 136.514 266.578C137.003 265.744 137.56 264.952 138.178 264.209C139.364 262.684 140.875 261.443 142.601 260.576L142.657 260.793Z" fill="#899FCA"/>
<path d="M114.517 296.679C116.701 295.772 115.794 288.7 115.309 284.79C114.589 279.149 113.529 278.289 112.137 271.051C111.571 268.099 111.235 265.121 110.554 259.161C109.575 250.556 109.643 249.078 109.234 245.955C107.531 232.805 101.248 220.361 98.9402 220.86C98.0888 221.047 97.8334 223.096 97.3523 227.199C96.7478 232.417 98.5315 234.113 97.6162 238.032C97.1096 240.221 96.6626 239.574 94.9768 243.57C93.0483 248.158 91.5966 251.617 92.6013 255.195C93.2144 257.368 94.1126 257.381 94.9768 260.478C95.6069 262.727 95.4281 263.775 95.7686 266.016C96.0368 267.771 96.4796 269.338 98.1441 273.411C100.809 279.92 102.137 283.175 103.955 286.093C106.186 289.718 111.916 297.748 114.517 296.679Z" fill="#DDE6F4"/>
<path d="M99.0211 220.809C99.6959 222.04 100.275 223.322 100.754 224.643C101.243 225.963 101.657 227.31 101.993 228.677C102.342 230.044 102.619 231.429 102.823 232.826C102.933 233.525 103.002 234.228 103.091 234.926C103.18 235.625 103.197 236.336 103.253 237.056C103.308 237.776 103.291 238.471 103.312 239.186C103.334 239.902 103.312 240.601 103.278 241.316L103.095 245.478C103.048 246.858 103.006 248.234 102.984 249.606C102.963 250.978 102.984 252.35 103.053 253.713C103.179 256.466 103.449 259.21 103.861 261.935C104.253 264.678 104.747 267.417 105.283 270.148C105.573 271.503 105.811 272.883 106.19 274.203C106.373 274.872 106.531 275.541 106.735 276.201C106.939 276.862 107.195 277.505 107.429 278.152C107.552 278.476 107.655 278.804 107.791 279.124L108.217 280.078L109.068 281.974C109.685 283.218 110.273 284.466 110.907 285.705L112.801 289.429C113.112 290.055 113.44 290.673 113.738 291.303L114.624 293.207C115.245 294.485 115.739 295.763 116.284 297.08L116.684 298.055C116.812 298.379 116.922 298.715 117.042 299.043L117.744 301.033C118.242 302.349 118.617 303.704 119.021 305.054L119.617 307.078C119.792 307.759 119.945 308.445 120.111 309.127L120.592 311.18C120.745 311.866 120.92 312.548 121.018 313.242L121.712 317.37L121.878 318.409C121.933 318.755 121.959 319.108 122.001 319.453L122.235 321.545C122.384 322.938 122.563 324.331 122.661 325.724C122.801 328.523 123.023 331.313 123.053 334.108V338.299C123.053 339.697 123.087 341.09 122.993 342.487C122.899 343.884 122.853 345.273 122.776 346.666C122.699 348.059 122.623 349.448 122.521 350.841H122.308C122.218 349.452 122.154 348.059 122.086 346.67C122.018 345.282 121.95 343.893 121.903 342.504C121.771 339.731 121.524 336.966 121.371 334.197C121.316 332.813 121.12 331.441 120.996 330.061L120.605 325.933C120.545 325.242 120.413 324.561 120.332 323.879L120.06 321.826L119.787 319.773C119.741 319.432 119.707 319.087 119.647 318.746L119.46 317.732L118.774 313.651C118.672 312.965 118.502 312.301 118.349 311.628L117.923 309.613C117.778 308.939 117.642 308.262 117.497 307.593L116.961 305.604C116.603 304.275 116.275 302.937 115.824 301.638C114.194 296.381 112.039 291.299 109.864 286.174C109.302 284.896 108.783 283.618 108.242 282.31L107.501 280.346L107.122 279.367C106.999 279.043 106.901 278.702 106.79 278.37C106.578 277.701 106.365 277.036 106.139 276.372C105.913 275.707 105.786 275.017 105.607 274.34C105.241 272.981 104.956 271.622 104.649 270.263L102.746 262.122C102.086 259.386 101.612 256.607 101.328 253.807C101.092 250.998 101.067 248.175 101.256 245.363L101.516 241.193C101.546 240.511 101.609 239.829 101.626 239.148C101.643 238.466 101.652 237.78 101.626 237.095L101.563 235.046C101.516 234.364 101.49 233.678 101.426 232.996C101.363 232.315 101.303 231.629 101.201 230.952C101.099 230.274 101.026 229.588 100.907 228.911C100.681 227.552 100.405 226.202 100.056 224.864C99.7275 223.521 99.3224 222.198 98.8423 220.902L99.0211 220.809Z" fill="#A4B5DD"/>
<path d="M125.037 281.092C123.542 280.73 123.581 274.668 124.245 270.523C124.864 266.814 126.114 263.24 127.94 259.954C129.643 256.925 130.494 256.686 131.899 253.615C133.491 250.177 133.01 249.299 134.279 246.215C135.662 242.85 136.578 243.076 140.349 237.499C143.172 233.324 144.675 231.109 145.628 227.701C146.85 223.39 146.28 220.391 146.948 220.306C147.693 220.208 149.362 223.765 149.328 227.701C149.328 229.865 148.787 230.645 146.684 236.95C145.207 241.38 144.466 243.629 144.309 245.137C143.921 248.878 144.854 249.738 144.573 253.858C144.47 255.378 144.266 258.416 142.989 261.253C140.567 266.676 136.654 266.101 131.371 272.108C126.991 277.113 126.314 281.399 125.037 281.092Z" fill="#DDE6F4"/>
<path d="M147.582 225.316C147.763 226.635 147.701 227.976 147.399 229.273C147.138 230.562 146.798 231.834 146.382 233.082C145.986 234.334 145.53 235.552 145.015 236.767L144.245 238.56C143.981 239.156 143.687 239.74 143.393 240.332C142.844 241.521 142.231 242.667 141.635 243.83C141.039 244.993 140.358 246.109 139.732 247.238C139.106 248.367 138.4 249.474 137.723 250.586L135.722 253.87C133.057 258.277 130.874 262.957 129.209 267.83C128.395 270.282 127.71 272.775 127.157 275.298L126.731 277.19L126.399 279.098C126.165 280.376 126.011 281.654 125.811 282.932C125.488 285.488 125.245 288.044 125.054 290.626C124.968 291.904 124.875 293.182 124.824 294.46C124.794 295.116 124.768 295.708 124.798 296.313C124.825 296.922 124.892 297.528 124.998 298.128C125.85 303.261 126.561 308.407 127.097 313.574C127.633 318.742 127.987 323.939 128.085 329.149C128.183 334.359 128.046 339.594 127.174 344.732H126.965C127.033 342.138 127.042 339.56 126.901 336.979C126.88 336.336 126.854 335.701 126.803 335.049L126.693 333.115C126.612 331.837 126.492 330.559 126.407 329.255C125.982 324.109 125.441 318.972 124.841 313.843C124.24 308.714 123.674 303.572 123.01 298.447C122.913 297.765 122.859 297.078 122.848 296.39C122.842 295.712 122.874 295.035 122.942 294.362C123.048 293.058 123.18 291.759 123.368 290.464C123.696 287.87 124.168 285.305 124.675 282.749C125.181 280.193 125.794 277.663 126.45 275.145C127.106 272.627 127.799 270.127 128.544 267.635C130.06 262.667 131.733 257.692 134.172 253.027C134.811 251.89 135.45 250.701 136.105 249.619L138.106 246.313C139.413 244.094 140.707 241.87 141.937 239.604C143.168 237.337 144.296 235.041 145.318 232.69C145.823 231.511 146.274 230.314 146.671 229.099L146.944 228.178C147.025 227.872 147.093 227.561 147.169 227.25C147.313 226.636 147.38 226.006 147.37 225.375L147.582 225.316Z" fill="#A4B5DD"/>
<path d="M153.278 257.138C161.163 251.766 161.793 251.6 163.576 249.738C167.731 245.406 166.88 243.719 170.711 239.702C175.688 234.47 182.912 231.271 184.441 232.83C185.237 233.644 183.947 235.203 181.273 243.135C179.238 249.172 179.57 249.525 178.37 251.327C176.667 253.883 174.232 255.425 169.392 258.458C164.947 261.244 163.679 261.368 161.473 263.741C160.158 265.151 160.094 265.658 157.774 268.499C156.306 270.361 154.719 272.125 153.023 273.782C150.098 276.546 147.548 280.598 142.333 280.172C141.282 280.065 144.083 263.4 153.278 257.138Z" fill="#DDE6F4"/>
<path d="M180.298 237.376C178.854 239.993 177.128 242.444 175.152 244.686C174.155 245.802 173.138 246.905 172.035 247.923C171.499 248.452 170.924 248.933 170.367 249.436C169.809 249.938 169.2 250.386 168.617 250.863L166.803 252.192L165.952 252.84C165.662 253.048 165.377 253.266 165.1 253.504L164.275 254.19C164.002 254.42 163.755 254.68 163.491 254.918C162.963 255.4 162.495 255.941 162.006 256.456C161.08 257.544 160.203 258.68 159.375 259.864C158.553 261.07 157.706 262.297 156.82 263.507C155.915 264.73 154.904 265.87 153.798 266.915C152.689 267.954 151.494 268.897 150.226 269.735C149.051 270.553 148.003 271.539 147.114 272.661C146.206 273.806 145.385 275.016 144.658 276.282C143.927 277.558 143.262 278.87 142.665 280.214C142.086 281.569 141.512 282.924 141.043 284.321C140.077 287.103 139.278 289.941 138.651 292.82C138.012 295.691 137.531 298.596 137.118 301.501C136.705 304.407 136.395 307.329 136.199 310.256C136.003 313.182 135.914 316.109 135.96 319.036C135.994 320.501 136.028 321.962 136.105 323.423C136.182 324.885 136.301 326.333 136.403 327.82C136.799 333.728 137.169 339.637 137.446 345.554C137.723 351.471 137.931 357.414 138.034 363.335H137.821C137.029 357.457 136.356 351.574 135.752 345.682C135.147 339.79 134.615 333.916 134.1 328.02C133.866 325.076 133.674 322.056 133.7 319.074C133.725 316.092 133.87 313.11 134.155 310.128C134.441 307.146 134.836 304.19 135.394 301.259C135.952 298.328 136.671 295.427 137.484 292.564C138.298 289.701 139.272 286.885 140.328 284.104C141.377 281.317 142.608 278.604 144.015 275.98C144.722 274.652 145.514 273.372 146.386 272.146C147.264 270.887 148.314 269.759 149.507 268.793C151.795 267.024 153.78 264.895 155.386 262.488C156.216 261.3 156.978 260.039 157.829 258.808C158.676 257.545 159.608 256.34 160.618 255.204C161.154 254.654 161.665 254.083 162.244 253.581C162.529 253.325 162.797 253.053 163.095 252.814L163.989 252.09C164.284 251.848 164.591 251.622 164.909 251.412L165.85 250.765L167.655 249.534C172.413 246.115 176.616 241.983 180.115 237.282L180.298 237.376Z" fill="#A4B5DD"/>
<path d="M148.2 333.797L147.774 337.49L144.117 368.418C144.05 368.983 143.778 369.504 143.353 369.881C142.928 370.259 142.378 370.467 141.81 370.467H119.762C119.194 370.466 118.646 370.257 118.221 369.879C117.796 369.502 117.523 368.982 117.455 368.418L116.267 358.36L113.359 333.792C113.321 333.466 113.352 333.136 113.45 332.823C113.548 332.51 113.712 332.221 113.93 331.976C114.148 331.731 114.416 331.535 114.715 331.401C115.014 331.267 115.339 331.198 115.667 331.198H145.892C146.221 331.197 146.545 331.267 146.845 331.401C147.145 331.535 147.412 331.732 147.63 331.978C147.849 332.223 148.012 332.512 148.11 332.826C148.208 333.14 148.239 333.47 148.2 333.797Z" fill="#B2C2E3"/>
<path opacity="0.47" d="M145.905 351.646C145.905 351.646 144.16 351.646 140.92 351.476C135.528 351.186 130.411 349.001 126.473 345.304C122.535 341.607 120.028 336.637 119.396 331.27V331.202H115.667C115.339 331.202 115.014 331.271 114.715 331.405C114.416 331.539 114.148 331.735 113.93 331.98C113.712 332.226 113.548 332.514 113.45 332.827C113.352 333.14 113.321 333.471 113.359 333.797L116.267 358.364L117.455 368.422C117.523 368.986 117.796 369.506 118.221 369.884C118.646 370.261 119.194 370.47 119.762 370.471H141.797C142.366 370.472 142.915 370.264 143.34 369.886C143.766 369.508 144.037 368.987 144.104 368.422L146.088 351.638C146.027 351.645 145.966 351.648 145.905 351.646Z" fill="url(#paint0_linear_449_780)"/>
<path opacity="0.49" d="M134.888 331.202L120.724 370.471H119.762C119.194 370.47 118.645 370.261 118.22 369.884C117.796 369.506 117.523 368.986 117.455 368.422L116.267 358.364L126.058 331.202H134.888Z" fill="white"/>
<path opacity="0.49" d="M148.2 333.797L147.774 337.49L135.884 370.467H123.615L137.778 331.198H145.892C146.221 331.197 146.545 331.267 146.845 331.401C147.145 331.535 147.412 331.732 147.63 331.978C147.849 332.223 148.012 332.512 148.11 332.826C148.208 333.14 148.239 333.47 148.2 333.797Z" fill="white"/>
<path d="M378.192 92.736H255.16C249.282 92.736 244.518 97.5041 244.518 103.386V359.825C244.518 365.707 249.282 370.475 255.16 370.475H378.192C384.07 370.475 388.835 365.707 388.835 359.825V103.386C388.835 97.5041 384.07 92.736 378.192 92.736Z" fill="#8EB8E2"/>
<path d="M365.284 92.736H242.253C236.375 92.736 231.61 97.5041 231.61 103.386V359.825C231.61 365.707 236.375 370.475 242.253 370.475H365.284C371.162 370.475 375.927 365.707 375.927 359.825V103.386C375.927 97.5041 371.162 92.736 365.284 92.736Z" fill="#3E5FAB"/>
<path d="M365.816 118.564H241.678V336.165H365.816V118.564Z" fill="#8EB8E2"/>
<path opacity="0.47" d="M365.812 191.44C350.227 210.316 329.818 228.681 299.911 236.345C275.812 242.522 257.766 238.62 241.674 234.884V336.165H365.812V191.44Z" fill="url(#paint1_linear_449_780)"/>
<path d="M282.593 92.736H324.892V98.0439C324.892 99.7997 324.195 101.483 322.955 102.725C321.714 103.966 320.031 104.664 318.277 104.664H289.213C287.459 104.664 285.776 103.966 284.535 102.725C283.295 101.483 282.598 99.7997 282.598 98.0439V92.736H282.593Z" fill="#324E87"/>
<path d="M340.303 108.153C342.231 108.153 343.794 106.589 343.794 104.66C343.794 102.73 342.231 101.167 340.303 101.167C338.375 101.167 336.812 102.73 336.812 104.66C336.812 106.589 338.375 108.153 340.303 108.153Z" fill="#324E87"/>
<path d="M303.743 360.89C308.866 360.89 313.019 356.734 313.019 351.608C313.019 346.481 308.866 342.325 303.743 342.325C298.62 342.325 294.467 346.481 294.467 351.608C294.467 356.734 298.62 360.89 303.743 360.89Z" stroke="#8EB8E2" stroke-width="5" stroke-miterlimit="10"/>
<path d="M331.448 166.992C331.448 184.922 318.447 195.283 302.41 195.283C286.374 195.283 273.377 184.922 273.377 166.992C273.377 149.062 286.374 134.531 302.41 134.531C318.447 134.531 331.448 149.053 331.448 166.992Z" fill="#3E5FAB"/>
<path d="M307.242 165.067C308.144 164.244 308.864 163.24 309.353 162.121C309.842 161.001 310.09 159.792 310.082 158.57C310.082 153.884 306.489 150.05 302.053 150.05C297.617 150.05 294.02 153.863 294.02 158.57C294.011 159.84 294.281 161.096 294.81 162.25C295.339 163.404 296.114 164.428 297.08 165.25C294.441 166.311 292.18 168.138 290.587 170.496C288.994 172.854 288.142 175.635 288.14 178.481V181.463H316.663V178.481C316.662 175.547 315.757 172.685 314.071 170.284C312.385 167.884 310 166.062 307.242 165.067Z" fill="#A8B9DF"/>
<path d="M297.459 266.161H255.373V293.655H297.459V266.161Z" fill="#C4CFE6"/>
<path d="M355.995 266.161H313.909V293.655H355.995V266.161Z" fill="#C4CFE6"/>
<path opacity="0.47" d="M255.084 305.233H355.999" stroke="url(#paint2_linear_449_780)" stroke-width="7" stroke-miterlimit="10"/>
<path opacity="0.47" d="M255.084 316.812H355.999" stroke="url(#paint3_linear_449_780)" stroke-width="7" stroke-miterlimit="10"/>
<path opacity="0.47" d="M255.084 244.46H355.999" stroke="url(#paint4_linear_449_780)" stroke-width="7" stroke-miterlimit="10"/>
<path opacity="0.47" d="M255.084 256.039H355.999" stroke="url(#paint5_linear_449_780)" stroke-width="7" stroke-miterlimit="10"/>
<path opacity="0.47" d="M255.084 221.303H355.999" stroke="url(#paint6_linear_449_780)" stroke-width="7" stroke-miterlimit="10"/>
<path opacity="0.47" d="M255.084 209.724H355.999" stroke="url(#paint7_linear_449_780)" stroke-width="7" stroke-miterlimit="10"/>
<path opacity="0.47" d="M255.084 232.881H355.999" stroke="url(#paint8_linear_449_780)" stroke-width="7" stroke-miterlimit="10"/>
<path opacity="0.25" d="M328.758 118.56L260.384 336.165H241.678V291.529L296.029 118.56H328.758Z" fill="white"/>
<path opacity="0.25" d="M271.342 336.165L339.716 118.564H365.816V174.886L315.139 336.165H271.342Z" fill="white"/>
<path d="M382.653 134.518V164.095" stroke="#324E87" stroke-width="5" stroke-miterlimit="10"/>
<path opacity="0.47" d="M192.112 89.7625H124.93V125.985H192.112V89.7625Z" fill="url(#paint9_linear_449_780)"/>
<path d="M145.377 108.949C145.377 118.219 152.095 123.574 160.384 123.574C168.672 123.574 175.394 118.219 175.394 108.949C175.394 99.6797 168.672 92.1693 160.384 92.1693C152.095 92.1693 145.377 99.684 145.377 108.949Z" fill="#3E5FAB"/>
<path d="M157.889 107.961C157.423 107.536 157.051 107.017 156.798 106.439C156.545 105.861 156.416 105.236 156.42 104.604C156.42 102.172 158.276 100.204 160.571 100.204C162.866 100.204 164.722 102.172 164.722 104.604C164.727 105.26 164.588 105.909 164.315 106.505C164.042 107.101 163.642 107.63 163.142 108.055C164.505 108.605 165.673 109.55 166.495 110.77C167.317 111.989 167.757 113.426 167.757 114.896V116.447H153.01V114.896C153.011 113.378 153.479 111.898 154.353 110.656C155.226 109.415 156.461 108.474 157.889 107.961Z" fill="white"/>
<path d="M181.908 116.992H168.877" stroke="#E7EBF6" stroke-width="8" stroke-miterlimit="10"/>
<path d="M175.394 123.51V110.475" stroke="#E7EBF6" stroke-width="8" stroke-miterlimit="10"/>
<path opacity="0.42" d="M176.599 89.7625L166.092 125.981H147.455L157.961 89.7625H176.599Z" fill="white"/>
<path opacity="0.42" d="M188.012 89.7625L177.506 125.981H169.034L179.541 89.7625H188.012Z" fill="white"/>
<path opacity="0.51" d="M534.289 118.565H401.453V168.27H534.289V118.565Z" fill="url(#paint10_linear_449_780)"/>
<path d="M441.04 145.543C441.04 156.287 433.249 162.498 423.641 162.498C414.033 162.498 406.242 156.287 406.242 145.543C406.242 134.799 414.02 126.096 423.628 126.096C433.237 126.096 441.04 134.803 441.04 145.543Z" fill="#3E5FAB"/>
<path d="M426.523 144.414C427.063 143.921 427.494 143.32 427.787 142.65C428.081 141.98 428.23 141.256 428.226 140.525C428.226 137.704 426.072 135.413 423.411 135.413C420.75 135.413 418.601 137.696 418.601 140.525C418.596 141.285 418.757 142.036 419.073 142.728C419.389 143.419 419.853 144.032 420.431 144.525C418.853 145.16 417.5 146.253 416.545 147.662C415.59 149.071 415.077 150.733 415.071 152.436V154.233H432.168V152.436C432.164 150.68 431.62 148.969 430.61 147.534C429.6 146.099 428.173 145.01 426.523 144.414Z" fill="white"/>
<path opacity="0.47" d="M454.497 137.504H520.895" stroke="url(#paint11_linear_449_780)" stroke-width="7" stroke-miterlimit="10"/>
<path opacity="0.47" d="M454.497 152.154H520.895" stroke="url(#paint12_linear_449_780)" stroke-width="7" stroke-miterlimit="10"/>
<path opacity="0.42" d="M475.621 118.56L458.017 168.27H439.618L457.221 118.56H475.621Z" fill="white"/>
<path opacity="0.42" d="M515.293 118.56L497.694 168.27H466.476L484.075 118.56H515.293Z" fill="white"/>
<path d="M234.113 361.256C236.222 361.256 237.932 359.546 237.932 357.435C237.932 355.325 236.222 353.614 234.113 353.614C232.004 353.614 230.294 355.325 230.294 357.435C230.294 359.546 232.004 361.256 234.113 361.256Z" fill="#30302F"/>
<path d="M234.781 365.649H237.187V364.371H234.781C234.356 364.371 234.113 364.158 234.109 364.085L232.998 347.71C233.004 347.681 233.019 347.654 233.04 347.633C233.215 347.484 233.441 347.408 233.67 347.42H237.698V346.142H233.67C233.382 346.134 233.094 346.184 232.826 346.29C232.557 346.396 232.313 346.556 232.108 346.76C231.976 346.897 231.874 347.059 231.808 347.237C231.741 347.415 231.711 347.605 231.721 347.795L232.832 364.17C232.891 365.014 233.717 365.649 234.781 365.649Z" fill="#30302F"/>
<path d="M235.616 356.997L248.562 356.673L239.039 304.441L237.702 246.573L216.535 233.205L234.39 303.913L235.616 356.997Z" fill="#EE465E"/>
<path d="M239.2 251.033H237.719C235.145 251.033 232.676 250.01 230.856 248.189C229.035 246.367 228.013 243.897 228.013 241.321V239.838C228.013 239.499 228.147 239.174 228.387 238.934C228.626 238.695 228.951 238.56 229.29 238.56H239.2C239.539 238.56 239.864 238.695 240.103 238.934C240.343 239.174 240.478 239.499 240.478 239.838V249.755C240.478 250.094 240.343 250.419 240.103 250.659C239.864 250.899 239.539 251.033 239.2 251.033Z" fill="#4E4F50"/>
<path d="M238.583 243.842H239.085C239.268 243.843 239.45 243.807 239.619 243.737C239.788 243.668 239.942 243.565 240.071 243.436C240.2 243.306 240.303 243.152 240.373 242.983C240.442 242.814 240.478 242.632 240.478 242.449V245.802C240.478 245.985 240.442 246.166 240.373 246.336C240.303 246.505 240.2 246.659 240.071 246.788C239.942 246.918 239.788 247.02 239.619 247.09C239.45 247.16 239.268 247.196 239.085 247.195H238.583C237.195 247.195 235.82 246.921 234.538 246.39C233.255 245.858 232.09 245.079 231.109 244.097C230.127 243.115 229.348 241.949 228.817 240.665C228.286 239.382 228.013 238.006 228.013 236.617V236.115C228.014 235.857 228.088 235.604 228.225 235.386C228.714 237.774 230.012 239.92 231.899 241.461C233.786 243.001 236.147 243.843 238.583 243.842Z" fill="#79797A"/>
<path d="M235.62 356.673V370.471H266.071V365.785C266.071 364.936 265.738 364.121 265.144 363.514C264.551 362.908 263.744 362.558 262.896 362.539C258.455 362.419 250.695 361.499 248.566 356.656H235.624L235.62 356.673Z" fill="#C23E56"/>
<path d="M231.329 261.466C231.601 268.384 232.125 275.277 232.734 282.157C233.019 285.599 233.389 289.033 233.721 292.47L234.85 302.767C235.636 309.628 236.525 316.477 237.519 323.313C238.502 330.129 239.575 336.979 240.925 343.761C240.656 336.838 240.133 329.946 239.52 323.066C238.907 316.186 238.208 309.314 237.391 302.456L236.114 292.176C235.646 288.768 235.22 285.326 234.705 281.91C233.717 275.09 232.653 268.261 231.329 261.466Z" fill="#4E4F50"/>
<path d="M235.697 370.471C235.762 369.49 236.206 368.573 236.936 367.915C237.632 367.281 238.55 366.949 239.49 366.99C240.399 367.024 241.258 367.418 241.878 368.085C242.483 368.732 242.81 369.59 242.789 370.475H243.781C243.809 369.61 244.171 368.788 244.79 368.183C245.402 367.596 246.219 367.272 247.066 367.281C247.914 367.289 248.724 367.63 249.324 368.23C249.914 368.827 250.243 369.635 250.239 370.475H251.516C251.522 369.846 251.711 369.233 252.061 368.711C252.411 368.189 252.907 367.781 253.486 367.537C254.065 367.294 254.703 367.226 255.321 367.341C255.939 367.457 256.509 367.751 256.961 368.187C257.582 368.79 257.943 369.61 257.97 370.475H258.966C258.948 369.59 259.275 368.733 259.877 368.085C260.498 367.42 261.356 367.026 262.266 366.99C263.205 366.953 264.122 367.285 264.82 367.915C265.545 368.577 265.988 369.492 266.059 370.471C266.09 369.96 266.019 369.448 265.849 368.965C265.679 368.482 265.415 368.038 265.071 367.659C264.71 367.272 264.275 366.96 263.793 366.741C263.311 366.521 262.791 366.399 262.261 366.381C261.715 366.364 261.17 366.455 260.659 366.648C260.148 366.842 259.679 367.135 259.281 367.51C258.876 367.895 258.551 368.357 258.325 368.869C258.099 369.381 257.977 369.933 257.966 370.492H258.962C258.975 369.924 258.875 369.358 258.667 368.829C258.458 368.3 258.146 367.819 257.749 367.412C257.347 366.997 256.866 366.665 256.335 366.438C255.804 366.21 255.233 366.091 254.655 366.086C254.077 366.082 253.504 366.193 252.97 366.412C252.435 366.632 251.95 366.956 251.542 367.365C250.711 368.194 250.241 369.318 250.235 370.492H251.512C251.506 369.317 251.034 368.193 250.201 367.365C249.792 366.958 249.307 366.635 248.773 366.417C248.239 366.198 247.667 366.088 247.09 366.092C246.513 366.096 245.942 366.215 245.412 366.442C244.881 366.669 244.401 366.998 243.998 367.412C243.601 367.819 243.289 368.3 243.08 368.829C242.872 369.358 242.771 369.924 242.785 370.492H243.777C243.766 369.933 243.645 369.382 243.42 368.87C243.195 368.358 242.87 367.896 242.466 367.51C241.661 366.753 240.589 366.347 239.486 366.381C238.956 366.399 238.436 366.521 237.954 366.741C237.472 366.96 237.037 367.272 236.676 367.659C236.332 368.038 236.068 368.482 235.9 368.965C235.732 369.448 235.663 369.96 235.697 370.471Z" fill="#30302F"/>
<path d="M166.446 349.516C168.555 349.516 170.264 347.805 170.264 345.695C170.264 343.584 168.555 341.874 166.446 341.874C164.337 341.874 162.627 343.584 162.627 345.695C162.627 347.805 164.337 349.516 166.446 349.516Z" fill="#30302F"/>
<path d="M165.965 354.453L166.476 353.282L164.275 352.302C163.883 352.132 163.747 351.842 163.772 351.77L169.307 336.327C169.324 336.302 169.35 336.284 169.379 336.276C169.487 336.241 169.601 336.227 169.714 336.237C169.828 336.246 169.938 336.278 170.039 336.331L173.73 337.95L174.241 336.779L170.554 335.16C170.292 335.036 170.008 334.967 169.719 334.957C169.43 334.946 169.142 334.995 168.872 335.1C168.697 335.172 168.538 335.28 168.406 335.416C168.275 335.553 168.172 335.715 168.106 335.893L162.572 351.339C162.287 352.132 162.797 353.043 163.76 353.469L165.965 354.453Z" fill="#30302F"/>
<path d="M167.995 345.899L179.988 350.802L192.219 299.141L214.211 245.602L200.184 224.856L188.17 296.786L167.995 345.899Z" fill="#EE465E"/>
<path d="M213.8 250.285L212.443 249.69C210.086 248.656 208.235 246.726 207.299 244.327C206.362 241.927 206.417 239.254 207.45 236.895L208.045 235.537C208.181 235.226 208.435 234.983 208.75 234.86C209.066 234.736 209.417 234.743 209.728 234.879L218.804 238.861C219.115 238.997 219.358 239.251 219.481 239.567C219.605 239.882 219.597 240.234 219.461 240.545L215.483 249.627C215.347 249.938 215.093 250.182 214.777 250.305C214.462 250.428 214.11 250.421 213.8 250.285Z" fill="#4E4F50"/>
<path d="M216.114 243.455L216.574 243.655C216.741 243.729 216.921 243.769 217.103 243.773C217.286 243.778 217.468 243.745 217.638 243.679C217.808 243.612 217.964 243.513 218.095 243.386C218.227 243.259 218.332 243.107 218.404 242.939L217.063 246.002C216.915 246.34 216.639 246.604 216.296 246.738C215.953 246.873 215.57 246.865 215.233 246.718L214.773 246.513C212.21 245.387 210.198 243.289 209.178 240.68C208.158 238.071 208.213 235.164 209.332 232.596L209.537 232.136C209.641 231.9 209.809 231.698 210.022 231.552C209.513 233.935 209.841 236.42 210.951 238.588C212.061 240.757 213.884 242.476 216.114 243.455Z" fill="#79797A"/>
<path d="M168.132 345.601L162.597 358.24L190.482 370.471L192.355 366.211C192.698 365.432 192.722 364.549 192.422 363.753C192.122 362.956 191.522 362.309 190.75 361.951C186.731 360.055 179.992 356.093 179.988 350.807L168.132 345.601Z" fill="#C23E56"/>
<path d="M202.397 256.678C199.869 263.127 197.587 269.649 195.386 276.197C194.262 279.464 193.227 282.757 192.15 286.038L189.051 295.921C187.022 302.524 185.089 309.154 183.253 315.811C181.414 322.469 179.656 329.153 178.144 335.914C180.673 329.464 182.959 322.946 185.16 316.399C187.361 309.851 189.477 303.274 191.491 296.671L194.471 286.745C195.416 283.422 196.403 280.116 197.302 276.776C199.124 270.122 200.882 263.438 202.397 256.678Z" fill="#4E4F50"/>
<path d="M162.665 358.266C163.123 357.395 163.897 356.733 164.828 356.417C165.722 356.119 166.698 356.185 167.544 356.6C168.363 356.998 168.99 357.704 169.29 358.564C169.585 359.399 169.541 360.317 169.166 361.12L170.073 361.516C170.445 360.731 171.108 360.12 171.92 359.812C172.511 359.587 173.154 359.542 173.77 359.682C174.386 359.822 174.947 360.141 175.382 360.599C175.817 361.057 176.107 361.634 176.215 362.256C176.323 362.879 176.245 363.52 175.99 364.098L177.157 364.609C177.321 364.224 177.559 363.876 177.858 363.583C178.156 363.291 178.51 363.061 178.898 362.905C179.687 362.598 180.566 362.612 181.345 362.945C182.124 363.278 182.742 363.903 183.066 364.686C183.387 365.488 183.387 366.384 183.066 367.186L183.981 367.587C184.316 366.768 184.957 366.114 185.769 365.764C186.605 365.403 187.549 365.387 188.396 365.721C189.275 366.061 189.985 366.734 190.371 367.595C190.772 368.493 190.81 369.512 190.477 370.437C190.714 369.981 190.856 369.481 190.894 368.969C190.932 368.456 190.866 367.941 190.699 367.455C190.528 366.952 190.259 366.487 189.907 366.089C189.556 365.69 189.129 365.365 188.651 365.133C187.653 364.659 186.508 364.601 185.467 364.971C184.937 365.166 184.451 365.465 184.037 365.849C183.623 366.234 183.29 366.697 183.057 367.212L183.972 367.612C184.213 367.097 184.348 366.538 184.369 365.97C184.39 365.401 184.297 364.834 184.096 364.302C183.895 363.76 183.588 363.262 183.194 362.839C182.799 362.416 182.324 362.076 181.797 361.838C181.27 361.6 180.701 361.47 180.123 361.454C179.545 361.438 178.969 361.538 178.43 361.746C177.335 362.17 176.453 363.011 175.978 364.085L177.144 364.596C177.375 364.063 177.499 363.49 177.509 362.909C177.518 362.327 177.413 361.75 177.199 361.21C176.989 360.672 176.674 360.181 176.273 359.766C175.872 359.35 175.392 359.019 174.861 358.791C174.331 358.563 173.761 358.443 173.183 358.438C172.606 358.433 172.034 358.542 171.499 358.76C170.972 358.973 170.493 359.289 170.09 359.69C169.687 360.091 169.369 360.569 169.153 361.095L170.06 361.491C170.276 360.975 170.387 360.421 170.387 359.861C170.387 359.302 170.276 358.748 170.06 358.232C169.846 357.729 169.534 357.273 169.143 356.891C168.752 356.509 168.29 356.207 167.783 356.004C167.289 355.809 166.762 355.713 166.231 355.723C165.701 355.734 165.177 355.849 164.692 356.064C164.224 356.276 163.803 356.58 163.455 356.959C163.107 357.337 162.838 357.782 162.665 358.266Z" fill="#30302F"/>
<path d="M190.52 304.846C193.995 304.846 196.812 302.027 196.812 298.549C196.812 295.072 193.995 292.253 190.52 292.253C187.045 292.253 184.228 295.072 184.228 298.549C184.228 302.027 187.045 304.846 190.52 304.846Z" fill="#4E4F50"/>
<path d="M190.52 302.149C192.507 302.149 194.117 300.537 194.117 298.549C194.117 296.561 192.507 294.95 190.52 294.95C188.533 294.95 186.923 296.561 186.923 298.549C186.923 300.537 188.533 302.149 190.52 302.149Z" fill="#EE465E"/>
<path d="M236.114 310.882C239.589 310.882 242.406 308.063 242.406 304.586C242.406 301.108 239.589 298.289 236.114 298.289C232.639 298.289 229.822 301.108 229.822 304.586C229.822 308.063 232.639 310.882 236.114 310.882Z" fill="#4E4F50"/>
<path d="M236.114 308.185C238.101 308.185 239.711 306.574 239.711 304.586C239.711 302.598 238.101 300.986 236.114 300.986C234.127 300.986 232.517 302.598 232.517 304.586C232.517 306.574 234.127 308.185 236.114 308.185Z" fill="#EE465E"/>
<path d="M198.43 240.69C210.453 243.562 222.97 243.671 235.041 241.009C234.895 238.439 235.144 235.861 235.782 233.367C236.731 229.73 238.476 226.35 240.89 223.471C241.003 223.336 241.075 223.171 241.097 222.996C241.12 222.821 241.092 222.644 241.017 222.484C240.941 222.325 240.822 222.19 240.673 222.097C240.524 222.003 240.351 221.953 240.175 221.954H193.219C193.05 221.954 192.883 222 192.738 222.088C192.593 222.176 192.475 222.302 192.397 222.452C192.319 222.603 192.283 222.772 192.295 222.941C192.306 223.11 192.364 223.273 192.461 223.411C194.62 226.546 196.243 230.019 197.263 233.687C197.898 235.973 198.289 238.321 198.43 240.69Z" fill="#30302F"/>
<path d="M198.43 240.69C210.453 243.562 222.97 243.671 235.041 241.009C234.895 238.439 235.144 235.861 235.782 233.367C236.731 229.73 238.476 226.35 240.89 223.471C241.003 223.336 241.075 223.171 241.097 222.996C241.12 222.821 241.092 222.644 241.017 222.484C240.941 222.325 240.822 222.19 240.673 222.097C240.524 222.003 240.351 221.953 240.175 221.954H193.219C193.05 221.954 192.883 222 192.738 222.088C192.593 222.176 192.475 222.302 192.397 222.452C192.319 222.603 192.283 222.772 192.295 222.941C192.306 223.11 192.364 223.273 192.461 223.411C194.62 226.546 196.243 230.019 197.263 233.687C197.898 235.973 198.289 238.321 198.43 240.69Z" fill="#EE465E"/>
<path d="M197.263 233.678C197.191 233.405 197.106 233.15 197.025 232.886C200.282 234.611 203.951 234.718 211.584 234.36C218.549 234.027 224.194 227.505 227.136 221.946H240.048C240.022 222.849 239.988 223.748 239.945 224.651C236.428 229.349 234.686 235.141 235.028 241.001C222.957 243.663 210.44 243.554 198.417 240.682C198.28 238.313 197.894 235.965 197.263 233.678Z" fill="#C23E56"/>
<path d="M209.545 232.924C211.632 231.303 214.18 230.388 216.821 230.312C219.462 230.235 222.059 231.001 224.236 232.498L225.241 233.188C226.733 234.224 228.465 234.862 230.272 235.042C232.079 235.221 233.902 234.937 235.569 234.215C235.488 234.577 235.42 234.939 235.356 235.288C233.606 235.941 231.724 236.161 229.871 235.929C228.018 235.696 226.248 235.019 224.713 233.955L223.709 233.265C221.695 231.875 219.291 231.163 216.845 231.232C214.4 231.301 212.04 232.147 210.107 233.648C208.336 235.018 206.208 235.848 203.978 236.039C201.748 236.231 199.509 235.775 197.531 234.726C197.446 234.377 197.357 234.023 197.255 233.665C197.255 233.593 197.212 233.529 197.195 233.461C199.059 234.654 201.245 235.241 203.455 235.143C205.665 235.044 207.791 234.265 209.541 232.911L209.545 232.924Z" fill="#545554"/>
<path d="M220.188 230.696C221.634 231.056 223.005 231.67 224.237 232.511L225.241 233.201C226.733 234.237 228.465 234.875 230.272 235.054C232.079 235.234 233.902 234.95 235.569 234.228C235.488 234.59 235.42 234.952 235.356 235.301C233.606 235.954 231.724 236.174 229.871 235.941C228.018 235.709 226.249 235.032 224.713 233.968L223.709 233.278C222.366 232.357 220.844 231.73 219.243 231.437C219.558 231.199 219.877 230.952 220.188 230.696Z" fill="#484748"/>
<path d="M202.976 235.152C204.219 235.149 205.452 234.931 206.62 234.509C207.331 234.509 208.089 234.483 208.898 234.458C207.185 235.474 205.24 236.033 203.25 236.08C201.259 236.127 199.29 235.66 197.531 234.726C197.446 234.377 197.357 234.023 197.255 233.665C197.255 233.593 197.212 233.529 197.195 233.461C198.922 234.563 200.928 235.15 202.976 235.152Z" fill="#484748"/>
<path d="M226.054 222.875C222.606 222.181 219.114 221.728 215.603 221.52C212.129 221.286 208.66 221.222 205.19 221.269C204.339 221.269 203.457 221.294 202.589 221.328C201.72 221.362 200.856 221.384 199.988 221.435C199.119 221.486 198.255 221.524 197.391 221.592L196.088 221.686L195.441 221.741H195.224C195.069 221.754 194.916 221.779 194.764 221.814C194.443 221.888 194.137 222.02 193.862 222.202C193.324 222.558 192.933 223.097 192.759 223.718C192.585 224.329 192.635 224.981 192.9 225.558C192.962 225.696 193.038 225.827 193.125 225.95L193.181 226.031L193.206 226.065L193.257 226.125L193.466 226.368L193.892 226.845C194.432 227.48 194.939 228.089 195.407 228.758C196.356 230.083 197.174 231.655 198.17 233.175C198.239 231.354 198.024 229.533 197.531 227.778C197.26 226.876 196.908 226.001 196.48 225.162L196.169 224.553L196.007 224.259L195.969 224.182L195.948 224.148C195.974 224.181 195.998 224.215 196.02 224.251C196.132 224.425 196.175 224.635 196.14 224.84C196.104 225.044 195.993 225.228 195.829 225.354C195.738 225.423 195.635 225.474 195.526 225.507C195.481 225.52 195.436 225.53 195.39 225.537C195.352 225.537 195.39 225.537 195.42 225.537H195.501L196.152 225.563L197.455 225.593C198.306 225.614 199.192 225.618 200.06 225.618C200.929 225.618 201.801 225.618 202.67 225.597C203.538 225.575 204.407 225.554 205.275 225.524C208.745 225.397 212.219 225.158 215.684 224.753C219.18 224.368 222.645 223.741 226.054 222.875Z" fill="#EA5F7A"/>
<path d="M216.561 243.766C210.387 243.697 204.241 242.941 198.234 241.512L197.621 241.363L197.583 240.733C197.218 234.689 195.204 228.861 191.759 223.884C191.575 223.617 191.468 223.305 191.448 222.982C191.429 222.658 191.498 222.336 191.648 222.049C191.798 221.762 192.024 221.521 192.301 221.353C192.578 221.184 192.895 221.095 193.219 221.094H240.163C240.5 221.093 240.831 221.189 241.116 221.37C241.401 221.551 241.629 221.81 241.773 222.116C241.916 222.422 241.969 222.762 241.926 223.097C241.883 223.432 241.745 223.748 241.529 224.008C237.545 228.723 235.523 234.79 235.88 240.954L235.918 241.678L235.211 241.832C229.369 243.119 223.404 243.769 217.421 243.77L216.561 243.766ZM234.948 233.146C235.923 229.387 237.725 225.894 240.222 222.922C240.231 222.911 240.236 222.899 240.236 222.885C240.236 222.872 240.231 222.859 240.222 222.849C240.218 222.834 240.209 222.822 240.197 222.813C240.184 222.805 240.169 222.801 240.154 222.802H193.219C193.206 222.801 193.192 222.804 193.181 222.811C193.169 222.818 193.16 222.828 193.155 222.841C193.147 222.853 193.143 222.868 193.143 222.883C193.143 222.898 193.147 222.913 193.155 222.926C196.652 227.979 198.75 233.868 199.234 239.996C210.709 242.643 222.622 242.753 234.143 240.319C234.074 237.902 234.345 235.487 234.948 233.146Z" fill="#EE465E"/>
<path d="M221.342 161.007H212.768V172.032H221.342V161.007Z" fill="#474748"/>
<path d="M228.008 166.37H206.097C205.949 166.37 205.802 166.339 205.668 166.277C205.533 166.216 205.413 166.126 205.316 166.014C205.219 165.902 205.147 165.771 205.106 165.628C205.064 165.486 205.054 165.337 205.075 165.19L209.928 132.345C209.963 132.1 210.085 131.876 210.272 131.714C210.459 131.552 210.698 131.463 210.946 131.464H223.159C223.407 131.464 223.646 131.553 223.834 131.715C224.021 131.877 224.144 132.1 224.181 132.345L229.034 165.19C229.056 165.337 229.045 165.487 229.003 165.629C228.962 165.772 228.89 165.904 228.792 166.016C228.695 166.128 228.574 166.218 228.439 166.279C228.304 166.34 228.157 166.371 228.008 166.37Z" fill="#EE465E"/>
<path d="M228.008 166.37C228.156 166.37 228.303 166.339 228.438 166.277C228.572 166.216 228.692 166.126 228.789 166.014C228.886 165.902 228.958 165.771 228.999 165.628C229.041 165.486 229.051 165.337 229.03 165.19L228.017 158.336C222.168 156.244 217.6 150.105 215.356 145.258C214.215 142.787 212.563 136.499 211.278 131.464H210.946C210.698 131.463 210.459 131.552 210.272 131.714C210.085 131.876 209.963 132.1 209.928 132.345L205.075 165.19C205.054 165.337 205.064 165.486 205.106 165.628C205.147 165.771 205.219 165.902 205.316 166.014C205.413 166.126 205.533 166.216 205.668 166.277C205.802 166.339 205.949 166.37 206.097 166.37H228.008Z" fill="#D13F5B"/>
<path d="M228.315 160.359C226.787 160.016 225.352 159.344 224.109 158.391C222.023 156.77 219.475 155.855 216.835 155.778C214.194 155.702 211.598 156.468 209.422 157.965L208.417 158.651C207.628 159.198 206.769 159.637 205.863 159.955L205.714 160.981C206.869 160.631 207.964 160.104 208.958 159.418L209.962 158.728C211.976 157.34 214.379 156.63 216.824 156.699C219.268 156.768 221.627 157.612 223.56 159.111C225.005 160.22 226.688 160.977 228.477 161.322L228.315 160.359Z" fill="#4E4F50"/>
<path opacity="0.51" d="M157.089 282.472L191.55 273.356C192.103 273.209 192.691 273.287 193.186 273.574C193.681 273.861 194.042 274.332 194.19 274.885L200.179 297.348C200.326 297.901 200.248 298.49 199.961 298.985C199.675 299.48 199.203 299.841 198.651 299.989L159.975 308.697C159.88 308.721 159.783 308.74 159.685 308.752C159.369 308.778 159.051 308.731 158.756 308.615C158.46 308.499 158.195 308.318 157.98 308.084C157.765 307.85 157.606 307.571 157.515 307.267C157.424 306.962 157.403 306.641 157.455 306.328L155.552 285.096C155.41 284.544 155.492 283.959 155.78 283.468C156.068 282.976 156.538 282.618 157.089 282.472Z" fill="url(#paint13_linear_449_780)"/>
<path d="M160.354 281.339L195.931 271.835C196.483 271.688 197.072 271.766 197.567 272.053C198.061 272.34 198.422 272.811 198.57 273.364L205.194 298.2C205.268 298.474 205.286 298.759 205.249 299.04C205.212 299.322 205.12 299.592 204.978 299.838C204.836 300.083 204.647 300.298 204.422 300.47C204.197 300.642 203.94 300.768 203.666 300.841L191.835 304.002C191.501 304.091 191.151 304.099 190.813 304.025C190.475 303.951 190.16 303.797 189.894 303.576L184.883 299.371C184.619 299.148 184.304 298.992 183.966 298.918C183.627 298.844 183.276 298.853 182.942 298.945L166.241 303.406C165.689 303.553 165.1 303.474 164.606 303.187C164.111 302.901 163.75 302.429 163.602 301.876L158.83 283.984C158.756 283.71 158.736 283.425 158.773 283.143C158.81 282.862 158.901 282.591 159.043 282.345C159.184 282.099 159.373 281.884 159.598 281.711C159.823 281.538 160.08 281.412 160.354 281.339Z" fill="#C4CEE5"/>
<path opacity="0.47" d="M194.39 277.3L199.745 296.057" stroke="url(#paint14_linear_449_780)" stroke-width="5" stroke-miterlimit="10"/>
<path opacity="0.47" d="M189.651 278.766L195.003 297.523" stroke="url(#paint15_linear_449_780)" stroke-width="5" stroke-miterlimit="10"/>
<path opacity="0.47" d="M184.73 280.231L190.081 298.988" stroke="url(#paint16_linear_449_780)" stroke-width="5" stroke-miterlimit="10"/>
<path d="M168.34 224.821C170.67 224.821 172.559 222.931 172.559 220.6C172.559 218.268 170.67 216.378 168.34 216.378C166.01 216.378 164.121 218.268 164.121 220.6C164.121 222.931 166.01 224.821 168.34 224.821Z" fill="#30302F"/>
<path d="M166.263 237.972C169.738 237.972 172.555 235.153 172.555 231.676C172.555 228.198 169.738 225.38 166.263 225.38C162.788 225.38 159.971 228.198 159.971 231.676C159.971 235.153 162.788 237.972 166.263 237.972Z" fill="#30302F"/>
<path d="M168.327 246.969C170.657 246.969 172.546 245.079 172.546 242.748C172.546 240.416 170.657 238.526 168.327 238.526C165.997 238.526 164.109 240.416 164.109 242.748C164.109 245.079 165.997 246.969 168.327 246.969Z" fill="#30302F"/>
<path d="M225.743 214.018H207.523V221.115H225.743V214.018Z" fill="#4E4F50"/>
<path d="M237.813 216.221L234.594 216.617C222.665 218.078 210.602 218.078 198.672 216.617L195.454 216.221C195.049 216.171 194.672 215.988 194.382 215.702C194.092 215.415 193.904 215.04 193.849 214.636L193.483 211.939C192.015 201.119 191.749 190.169 192.691 179.291L192.985 175.904C193.023 175.467 193.215 175.058 193.527 174.749C193.839 174.441 194.25 174.254 194.688 174.221L205.088 173.408C212.779 172.803 220.505 172.803 228.196 173.408L238.587 174.234C239.025 174.266 239.437 174.453 239.749 174.761C240.061 175.07 240.253 175.479 240.29 175.917L240.584 179.303C241.526 190.182 241.26 201.132 239.792 211.952L239.426 214.649C239.368 215.052 239.178 215.425 238.886 215.709C238.594 215.993 238.217 216.173 237.813 216.221Z" fill="#F6BE1D"/>
<path d="M239.417 214.636L239.784 211.939C240.206 208.815 240.527 205.698 240.746 202.589C234.786 208.506 232.453 209.064 220.66 208.51C213.104 208.152 207.093 200.501 204.411 194.703C202.478 190.52 199.081 175.384 198.476 173.923L194.679 174.221C194.242 174.254 193.831 174.441 193.519 174.749C193.207 175.058 193.014 175.467 192.976 175.904L192.683 179.291C191.741 190.169 192.006 201.119 193.474 211.939L193.84 214.636C193.896 215.04 194.083 215.415 194.373 215.702C194.664 215.988 195.041 216.171 195.445 216.221L198.664 216.617C210.593 218.078 222.656 218.078 234.586 216.617L237.804 216.221C238.21 216.172 238.589 215.991 238.881 215.704C239.173 215.417 239.362 215.041 239.417 214.636Z" fill="#EE9E23"/>
<path d="M256.838 200.872C259.168 200.872 261.056 198.982 261.056 196.65C261.056 194.319 259.168 192.428 256.838 192.428C254.508 192.428 252.619 194.319 252.619 196.65C252.619 198.982 254.508 200.872 256.838 200.872Z" fill="#30302F"/>
<path d="M267.353 206.814C270.828 206.814 273.645 203.996 273.645 200.518C273.645 197.041 270.828 194.222 267.353 194.222C263.878 194.222 261.061 197.041 261.061 200.518C261.061 203.996 263.878 206.814 267.353 206.814Z" fill="#30302F"/>
<path d="M271.657 195.334C273.987 195.334 275.876 193.444 275.876 191.112C275.876 188.78 273.987 186.89 271.657 186.89C269.327 186.89 267.438 188.78 267.438 191.112C267.438 193.444 269.327 195.334 271.657 195.334Z" fill="#30302F"/>
<path d="M222.525 178.025L269.967 205.115L277.221 159.793" stroke="#F6BE1D" stroke-width="16" stroke-linejoin="round"/>
<path d="M268.528 209.247C272.003 209.247 274.82 206.428 274.82 202.951C274.82 199.473 272.003 196.654 268.528 196.654C265.053 196.654 262.236 199.473 262.236 202.951C262.236 206.428 265.053 209.247 268.528 209.247Z" fill="#4E4F50"/>
<path d="M268.528 206.55C270.514 206.55 272.125 204.939 272.125 202.951C272.125 200.963 270.514 199.351 268.528 199.351C266.541 199.351 264.93 200.963 264.93 202.951C264.93 204.939 266.541 206.55 268.528 206.55Z" fill="#30302F"/>
<path d="M256.455 203.568C258.785 203.568 260.673 201.678 260.673 199.347C260.673 197.015 258.785 195.125 256.455 195.125C254.125 195.125 252.236 197.015 252.236 199.347C252.236 201.678 254.125 203.568 256.455 203.568Z" fill="#4E4F50"/>
<path d="M256.455 201.481C257.632 201.481 258.587 200.525 258.587 199.347C258.587 198.168 257.632 197.212 256.455 197.212C255.277 197.212 254.322 198.168 254.322 199.347C254.322 200.525 255.277 201.481 256.455 201.481Z" fill="#30302F"/>
<path d="M273.406 195.951C275.736 195.951 277.625 194.061 277.625 191.73C277.625 189.398 275.736 187.508 273.406 187.508C271.076 187.508 269.188 189.398 269.188 191.73C269.188 194.061 271.076 195.951 273.406 195.951Z" fill="#4E4F50"/>
<path d="M273.406 193.864C274.584 193.864 275.539 192.908 275.539 191.73C275.539 190.551 274.584 189.595 273.406 189.595C272.229 189.595 271.274 190.551 271.274 191.73C271.274 192.908 272.229 193.864 273.406 193.864Z" fill="#30302F"/>
<path d="M290.984 160.892L288.26 158.4C287.67 159.046 286.959 159.57 286.166 159.942C285.374 160.314 284.516 160.525 283.642 160.565C282.768 160.605 281.895 160.473 281.072 160.175C280.249 159.877 279.493 159.42 278.847 158.83C278.201 158.24 277.677 157.528 277.306 156.735C276.934 155.942 276.723 155.084 276.683 154.209C276.643 153.335 276.775 152.461 277.073 151.638C277.371 150.814 277.827 150.058 278.417 149.411L275.693 146.919C273.896 148.954 272.97 151.615 273.115 154.327C273.26 157.039 274.463 159.586 276.466 161.418C278.47 163.251 281.112 164.222 283.824 164.124C286.537 164.025 289.102 162.865 290.967 160.892H290.984Z" fill="#EE9E23"/>
<path d="M277.221 165.071C279.551 165.071 281.44 163.181 281.44 160.849C281.44 158.518 279.551 156.627 277.221 156.627C274.891 156.627 273.002 158.518 273.002 160.849C273.002 163.181 274.891 165.071 277.221 165.071Z" fill="#4E4F50"/>
<path d="M277.221 162.983C278.399 162.983 279.354 162.028 279.354 160.849C279.354 159.67 278.399 158.715 277.221 158.715C276.043 158.715 275.088 159.67 275.088 160.849C275.088 162.028 276.043 162.983 277.221 162.983Z" fill="#EE9E23"/>
<path d="M201.129 191.116C201.42 191.116 201.708 191.059 201.977 190.947C202.246 190.836 202.49 190.672 202.696 190.466C202.901 190.26 203.064 190.015 203.175 189.746C203.286 189.477 203.343 189.188 203.342 188.897V173.561L194.679 174.234C194.242 174.267 193.831 174.454 193.519 174.762C193.207 175.07 193.014 175.48 192.976 175.917L192.682 179.303C192.342 183.24 192.16 187.182 192.138 191.129L201.129 191.116Z" stroke="#F8E782" stroke-miterlimit="10"/>
<path d="M238.643 209.306C238.934 209.306 239.222 209.249 239.491 209.137C239.76 209.026 240.004 208.862 240.209 208.656C240.415 208.45 240.578 208.205 240.689 207.936C240.8 207.667 240.857 207.378 240.856 207.087V191.73L232.189 192.411C231.752 192.445 231.341 192.632 231.029 192.94C230.717 193.249 230.525 193.657 230.486 194.094L230.192 197.481C229.852 201.417 229.671 205.359 229.652 209.306H238.643Z" stroke="#F8E782" stroke-miterlimit="10"/>
<path d="M228.481 173.429V184.85C228.482 185.34 228.677 185.809 229.023 186.154C229.37 186.5 229.839 186.694 230.328 186.694H235.773C236.263 186.694 236.732 186.5 237.078 186.154C237.425 185.809 237.62 185.34 237.621 184.85V174.145L228.481 173.429Z" fill="#EE9E23"/>
<path d="M227.672 207.462C227.43 207.461 227.189 207.509 226.965 207.601C226.741 207.694 226.537 207.829 226.366 208.001C226.194 208.172 226.058 208.376 225.965 208.6C225.872 208.824 225.824 209.064 225.824 209.306V217.426C228.753 217.244 231.677 216.974 234.594 216.617L237.813 216.22C238.217 216.171 238.594 215.988 238.885 215.701C239.175 215.415 239.362 215.04 239.417 214.636L239.784 211.939C239.984 210.448 240.158 208.957 240.316 207.462H227.672Z" fill="#EE9E23"/>
<path d="M234.334 207.462C232.163 208.395 229.681 208.693 225.944 208.672C225.867 208.875 225.827 209.09 225.824 209.306V217.426C228.731 217.244 231.63 216.977 234.522 216.625H234.594L237.813 216.229C238.065 216.2 238.309 216.119 238.528 215.992C238.748 215.864 238.939 215.693 239.09 215.488C239.274 215.237 239.391 214.944 239.43 214.636L239.796 211.939C239.996 210.448 240.171 208.957 240.328 207.462H234.334Z" fill="#E77B26"/>
<path d="M198.97 200.148H192.367C192.583 204.09 192.955 208.02 193.483 211.939L193.849 214.636C193.904 215.04 194.092 215.415 194.382 215.702C194.672 215.988 195.049 216.171 195.454 216.221L198.672 216.617C199.694 216.74 200.716 216.843 201.737 216.945V202.917C201.737 202.182 201.446 201.478 200.927 200.959C200.408 200.439 199.704 200.148 198.97 200.148Z" fill="#E77B26"/>
<path d="M226.454 173.288C226.154 171.931 225.4 170.717 224.316 169.848C223.232 168.978 221.884 168.506 220.494 168.509H213.534C212.157 168.509 210.822 168.976 209.744 169.834C208.667 170.692 207.913 171.89 207.604 173.233C213.882 172.847 220.179 172.865 226.454 173.288Z" fill="#4E4F50"/>
<path d="M192.142 197.485L188.264 192.33C182.729 181.68 185.977 179.742 191.648 176.637L192.985 175.904L192.142 197.485Z" fill="#EE9E23"/>
<path d="M240.997 197.485L244.871 192.33C250.405 181.68 247.161 179.742 241.465 176.637L240.133 175.904L240.997 197.485Z" fill="#EE9E23"/>
<path d="M216.633 218.636C210.592 218.637 204.557 218.268 198.562 217.533L195.343 217.141C194.736 217.066 194.171 216.792 193.736 216.362C193.3 215.932 193.02 215.37 192.938 214.764L192.568 212.063C191.094 201.174 190.827 190.157 191.771 179.21L192.065 175.823C192.12 175.167 192.408 174.552 192.877 174.09C193.345 173.627 193.963 173.347 194.619 173.301L205.02 172.483C212.759 171.878 220.533 171.878 228.272 172.483L238.672 173.301C239.329 173.347 239.948 173.626 240.416 174.089C240.885 174.551 241.172 175.167 241.227 175.823L241.52 179.21C242.465 190.157 242.198 201.174 240.724 212.063L240.358 214.764C240.274 215.37 239.992 215.931 239.557 216.361C239.121 216.791 238.556 217.065 237.949 217.141L234.73 217.533C228.726 218.27 222.682 218.638 216.633 218.636ZM216.633 173.876C212.802 173.876 208.97 174.025 205.139 174.328L194.739 175.141C194.518 175.158 194.311 175.253 194.155 175.409C193.999 175.566 193.904 175.773 193.887 175.993L193.594 179.38C192.659 190.189 192.923 201.069 194.381 211.82L194.747 214.521C194.775 214.723 194.869 214.911 195.014 215.054C195.16 215.198 195.349 215.289 195.552 215.313L198.77 215.709C210.623 217.162 222.609 217.162 234.462 215.709L237.685 215.313C237.887 215.288 238.075 215.197 238.22 215.054C238.365 214.91 238.458 214.723 238.485 214.521L238.851 211.82C240.323 201.067 240.6 190.185 239.677 179.372L239.383 175.985C239.367 175.764 239.272 175.557 239.115 175.401C238.959 175.245 238.752 175.15 238.532 175.133L228.132 174.319C224.305 174.025 220.469 173.876 216.633 173.876Z" fill="#E77B26"/>
<path d="M187.404 190.597C186.645 189.063 186.057 187.45 185.65 185.787C185.254 186.119 175.198 194.942 169.119 209.839C163.525 223.548 159.817 245.887 173.926 274.476L178.063 272.431C167.387 250.799 165.786 230.398 173.308 211.79C178.149 199.794 185.424 192.454 187.404 190.597Z" fill="#F6BE1D"/>
<path d="M163.691 237.972C167.166 237.972 169.983 235.153 169.983 231.676C169.983 228.198 167.166 225.38 163.691 225.38C160.216 225.38 157.399 228.198 157.399 231.676C157.399 235.153 160.216 237.972 163.691 237.972Z" fill="#4E4F50"/>
<path d="M163.691 235.275C165.678 235.275 167.289 233.664 167.289 231.676C167.289 229.688 165.678 228.076 163.691 228.076C161.705 228.076 160.094 229.688 160.094 231.676C160.094 233.664 161.705 235.275 163.691 235.275Z" fill="#30302F"/>
<path d="M166.263 224.821C168.593 224.821 170.482 222.931 170.482 220.6C170.482 218.268 168.593 216.378 166.263 216.378C163.933 216.378 162.044 218.268 162.044 220.6C162.044 222.931 163.933 224.821 166.263 224.821Z" fill="#4E4F50"/>
<path d="M166.263 222.734C167.441 222.734 168.396 221.779 168.396 220.6C168.396 219.421 167.441 218.466 166.263 218.466C165.085 218.466 164.13 219.421 164.13 220.6C164.13 221.779 165.085 222.734 166.263 222.734Z" fill="#30302F"/>
<path d="M166.25 246.969C168.58 246.969 170.469 245.079 170.469 242.748C170.469 240.416 168.58 238.526 166.25 238.526C163.92 238.526 162.031 240.416 162.031 242.748C162.031 245.079 163.92 246.969 166.25 246.969Z" fill="#4E4F50"/>
<path d="M166.25 244.882C167.428 244.882 168.383 243.926 168.383 242.748C168.383 241.569 167.428 240.613 166.25 240.613C165.072 240.613 164.117 241.569 164.117 242.748C164.117 243.926 165.072 244.882 166.25 244.882Z" fill="#30302F"/>
<path d="M170.418 286.894C169.802 285.665 169.437 284.326 169.344 282.955C169.25 281.584 169.431 280.208 169.874 278.907C170.318 277.607 171.016 276.407 171.927 275.379C172.839 274.351 173.946 273.515 175.183 272.919C176.421 272.324 177.765 271.98 179.137 271.91C180.508 271.839 181.88 272.042 183.173 272.507C184.465 272.973 185.652 273.691 186.664 274.62C187.676 275.549 188.493 276.67 189.068 277.918L185.743 279.516C184.955 277.962 183.59 276.78 181.94 276.222C180.291 275.663 178.489 275.774 176.92 276.529C175.351 277.285 174.14 278.625 173.547 280.263C172.954 281.901 173.026 283.706 173.747 285.292L170.418 286.894Z" fill="#EE9E23"/>
<path d="M176.156 278.118C178.486 278.118 180.375 276.228 180.375 273.897C180.375 271.565 178.486 269.675 176.156 269.675C173.826 269.675 171.937 271.565 171.937 273.897C171.937 276.228 173.826 278.118 176.156 278.118Z" fill="#4E4F50"/>
<path d="M176.156 276.031C177.334 276.031 178.289 275.075 178.289 273.897C178.289 272.718 177.334 271.762 176.156 271.762C174.978 271.762 174.023 272.718 174.023 273.897C174.023 275.075 174.978 276.031 176.156 276.031Z" fill="#EE9E23"/>
<path d="M199.788 202.993C200.227 202.993 200.584 202.637 200.584 202.197C200.584 201.757 200.227 201.4 199.788 201.4C199.348 201.4 198.992 201.757 198.992 202.197C198.992 202.637 199.348 202.993 199.788 202.993Z" fill="#020202"/>
<path d="M230.456 185.203C230.896 185.203 231.252 184.847 231.252 184.407C231.252 183.967 230.896 183.61 230.456 183.61C230.016 183.61 229.66 183.967 229.66 184.407C229.66 184.847 230.016 185.203 230.456 185.203Z" fill="#020202"/>
<path d="M236.054 185.203C236.494 185.203 236.85 184.847 236.85 184.407C236.85 183.967 236.494 183.61 236.054 183.61C235.615 183.61 235.258 183.967 235.258 184.407C235.258 184.847 235.615 185.203 236.054 185.203Z" fill="#020202"/>
<path d="M236.054 177.497C236.494 177.497 236.85 177.141 236.85 176.701C236.85 176.261 236.494 175.904 236.054 175.904C235.615 175.904 235.258 176.261 235.258 176.701C235.258 177.141 235.615 177.497 236.054 177.497Z" fill="#020202"/>
<path d="M230.456 176.701C230.896 176.701 231.252 176.344 231.252 175.904C231.252 175.464 230.896 175.107 230.456 175.107C230.016 175.107 229.66 175.464 229.66 175.904C229.66 176.344 230.016 176.701 230.456 176.701Z" fill="#020202"/>
<path d="M227.685 210.141C228.124 210.141 228.481 209.785 228.481 209.345C228.481 208.905 228.124 208.548 227.685 208.548C227.245 208.548 226.889 208.905 226.889 209.345C226.889 209.785 227.245 210.141 227.685 210.141Z" fill="#020202"/>
<path d="M237.621 210.103C238.061 210.103 238.417 209.746 238.417 209.307C238.417 208.867 238.061 208.51 237.621 208.51C237.181 208.51 236.825 208.867 236.825 209.307C236.825 209.746 237.181 210.103 237.621 210.103Z" fill="#020202"/>
<path d="M194.845 202.993C195.285 202.993 195.641 202.637 195.641 202.197C195.641 201.757 195.285 201.4 194.845 201.4C194.405 201.4 194.049 201.757 194.049 202.197C194.049 202.637 194.405 202.993 194.845 202.993Z" fill="#020202"/>
<path d="M200.162 215.19C200.602 215.19 200.958 214.833 200.958 214.393C200.958 213.953 200.602 213.596 200.162 213.596C199.723 213.596 199.366 213.953 199.366 214.393C199.366 214.833 199.723 215.19 200.162 215.19Z" fill="#020202"/>
<path d="M227.685 215.611C228.124 215.611 228.481 215.255 228.481 214.815C228.481 214.375 228.124 214.018 227.685 214.018C227.245 214.018 226.889 214.375 226.889 214.815C226.889 215.255 227.245 215.611 227.685 215.611Z" fill="#020202"/>
<path d="M168.659 279.119L180.239 276.027L175.901 283.588L174.449 285.71L171.942 287.141L169.132 286.894L168.659 279.119Z" fill="#C4CEE5"/>
<path d="M428.894 201.306V252.916" stroke="#3E5FAB" stroke-width="3" stroke-miterlimit="10"/>
<path d="M450.265 178.844H407.519C406.44 178.844 405.565 179.719 405.565 180.799V209.733C405.565 210.813 406.44 211.688 407.519 211.688H450.265C451.344 211.688 452.219 210.813 452.219 209.733V180.799C452.219 179.719 451.344 178.844 450.265 178.844Z" fill="#F9BF1F"/>
<path d="M428.894 261.768C436.275 261.768 442.258 255.782 442.258 248.396C442.258 241.011 436.275 235.024 428.894 235.024C421.514 235.024 415.531 241.011 415.531 248.396C415.531 255.782 421.514 261.768 428.894 261.768Z" fill="#3E5FAB"/>
<path d="M428.894 261.768C436.275 261.768 442.258 255.782 442.258 248.396C442.258 241.011 436.275 235.024 428.894 235.024C421.514 235.024 415.531 241.011 415.531 248.396C415.531 255.782 421.514 261.768 428.894 261.768Z" fill="#3E5FAB"/>
<path d="M428.894 231.331C433.362 231.331 436.983 227.707 436.983 223.237C436.983 218.767 433.362 215.143 428.894 215.143C424.427 215.143 420.806 218.767 420.806 223.237C420.806 227.707 424.427 231.331 428.894 231.331Z" fill="#3E5FAB"/>
<path opacity="0.25" d="M423.283 178.843L413.956 211.688H407.519C407.263 211.688 407.009 211.637 406.771 211.539C406.534 211.441 406.319 211.297 406.138 211.115C405.956 210.934 405.812 210.718 405.714 210.481C405.616 210.244 405.565 209.989 405.565 209.733V208.646L414.033 178.826L423.283 178.843Z" fill="white"/>
<path opacity="0.25" d="M442.713 178.843L433.386 211.688H417.911L427.251 178.843H442.713Z" fill="white"/>
<path d="M431.508 215.586C430.398 215.21 429.219 215.081 428.054 215.206C426.888 215.332 425.764 215.709 424.759 216.313C423.753 216.916 422.891 217.731 422.232 218.7C421.572 219.67 421.131 220.772 420.939 221.929C420.747 223.086 420.809 224.271 421.12 225.402C421.431 226.533 421.984 227.583 422.741 228.478C423.498 229.374 424.44 230.095 425.502 230.59C426.565 231.086 427.722 231.344 428.894 231.348C429.18 231.348 429.461 231.348 429.746 231.305C427.46 229.393 424.416 228.038 424.416 224.438C424.407 219.731 429.58 218.853 431.508 215.586Z" fill="#8EB8E2"/>
<path d="M415.531 248.396C415.531 251.943 416.939 255.344 419.445 257.852C421.951 260.36 425.35 261.768 428.894 261.768C429.815 261.768 430.734 261.674 431.636 261.487C432.028 260.734 432.23 259.896 432.223 259.046C432.223 253.274 424.407 253.274 424.407 247.502C424.407 241.729 432.223 241.734 432.223 235.961C432.223 235.782 432.194 235.621 432.181 235.45C430.209 234.939 428.147 234.888 426.152 235.3C424.157 235.712 422.283 236.576 420.675 237.827C419.067 239.077 417.767 240.681 416.875 242.513C415.983 244.345 415.523 246.358 415.531 248.396Z" fill="#8EB8E2"/>
<defs>
<linearGradient id="paint0_linear_449_780" x1="130.958" y1="376.58" x2="129.76" y2="343.833" gradientUnits="userSpaceOnUse">
<stop stop-color="white" stop-opacity="0"/>
<stop offset="0.01" stop-color="#FCFDFE" stop-opacity="0.02"/>
<stop offset="0.14" stop-color="#D1DDEF" stop-opacity="0.27"/>
<stop offset="0.28" stop-color="#ACC2E1" stop-opacity="0.5"/>
<stop offset="0.43" stop-color="#8EACD6" stop-opacity="0.68"/>
<stop offset="0.57" stop-color="#769ACE" stop-opacity="0.82"/>
<stop offset="0.71" stop-color="#658EC8" stop-opacity="0.92"/>
<stop offset="0.85" stop-color="#5B86C4" stop-opacity="0.98"/>
<stop offset="1" stop-color="#5884C3"/>
</linearGradient>
<linearGradient id="paint1_linear_449_780" x1="303.743" y1="353.388" x2="303.743" y2="208.668" gradientUnits="userSpaceOnUse">
<stop stop-color="white" stop-opacity="0"/>
<stop offset="0.01" stop-color="#FCFDFE" stop-opacity="0.02"/>
<stop offset="0.14" stop-color="#D1DDEF" stop-opacity="0.27"/>
<stop offset="0.28" stop-color="#ACC2E1" stop-opacity="0.5"/>
<stop offset="0.43" stop-color="#8EACD6" stop-opacity="0.68"/>
<stop offset="0.57" stop-color="#769ACE" stop-opacity="0.82"/>
<stop offset="0.71" stop-color="#658EC8" stop-opacity="0.92"/>
<stop offset="0.85" stop-color="#5B86C4" stop-opacity="0.98"/>
<stop offset="1" stop-color="#5884C3"/>
</linearGradient>
<linearGradient id="paint2_linear_449_780" x1="-nan" y1="-nan" x2="-nan" y2="-nan" gradientUnits="userSpaceOnUse">
<stop stop-color="#4058A6"/>
<stop offset="0.25" stop-color="#415AA8" stop-opacity="0.97"/>
<stop offset="0.49" stop-color="#4562AD" stop-opacity="0.89"/>
<stop offset="0.72" stop-color="#4C6FB5" stop-opacity="0.74"/>
<stop offset="0.96" stop-color="#5680C0" stop-opacity="0.54"/>
<stop offset="1" stop-color="#5884C3" stop-opacity="0.5"/>
</linearGradient>
<linearGradient id="paint3_linear_449_780" x1="-nan" y1="-nan" x2="-nan" y2="-nan" gradientUnits="userSpaceOnUse">
<stop stop-color="#4058A6"/>
<stop offset="0.25" stop-color="#415AA8" stop-opacity="0.97"/>
<stop offset="0.49" stop-color="#4562AD" stop-opacity="0.89"/>
<stop offset="0.72" stop-color="#4C6FB5" stop-opacity="0.74"/>
<stop offset="0.96" stop-color="#5680C0" stop-opacity="0.54"/>
<stop offset="1" stop-color="#5884C3" stop-opacity="0.5"/>
</linearGradient>
<linearGradient id="paint4_linear_449_780" x1="-nan" y1="-nan" x2="-nan" y2="-nan" gradientUnits="userSpaceOnUse">
<stop stop-color="#4058A6"/>
<stop offset="0.25" stop-color="#415AA8" stop-opacity="0.97"/>
<stop offset="0.49" stop-color="#4562AD" stop-opacity="0.89"/>
<stop offset="0.72" stop-color="#4C6FB5" stop-opacity="0.74"/>
<stop offset="0.96" stop-color="#5680C0" stop-opacity="0.54"/>
<stop offset="1" stop-color="#5884C3" stop-opacity="0.5"/>
</linearGradient>
<linearGradient id="paint5_linear_449_780" x1="-nan" y1="-nan" x2="-nan" y2="-nan" gradientUnits="userSpaceOnUse">
<stop stop-color="#4058A6"/>
<stop offset="0.25" stop-color="#415AA8" stop-opacity="0.97"/>
<stop offset="0.49" stop-color="#4562AD" stop-opacity="0.89"/>
<stop offset="0.72" stop-color="#4C6FB5" stop-opacity="0.74"/>
<stop offset="0.96" stop-color="#5680C0" stop-opacity="0.54"/>
<stop offset="1" stop-color="#5884C3" stop-opacity="0.5"/>
</linearGradient>
<linearGradient id="paint6_linear_449_780" x1="-nan" y1="-nan" x2="-nan" y2="-nan" gradientUnits="userSpaceOnUse">
<stop stop-color="#4058A6"/>
<stop offset="0.25" stop-color="#415AA8" stop-opacity="0.97"/>
<stop offset="0.49" stop-color="#4562AD" stop-opacity="0.89"/>
<stop offset="0.72" stop-color="#4C6FB5" stop-opacity="0.74"/>
<stop offset="0.96" stop-color="#5680C0" stop-opacity="0.54"/>
<stop offset="1" stop-color="#5884C3" stop-opacity="0.5"/>
</linearGradient>
<linearGradient id="paint7_linear_449_780" x1="-nan" y1="-nan" x2="-nan" y2="-nan" gradientUnits="userSpaceOnUse">
<stop stop-color="#4058A6"/>
<stop offset="0.25" stop-color="#415AA8" stop-opacity="0.97"/>
<stop offset="0.49" stop-color="#4562AD" stop-opacity="0.89"/>
<stop offset="0.72" stop-color="#4C6FB5" stop-opacity="0.74"/>
<stop offset="0.96" stop-color="#5680C0" stop-opacity="0.54"/>
<stop offset="1" stop-color="#5884C3" stop-opacity="0.5"/>
</linearGradient>
<linearGradient id="paint8_linear_449_780" x1="-nan" y1="-nan" x2="-nan" y2="-nan" gradientUnits="userSpaceOnUse">
<stop stop-color="#4058A6"/>
<stop offset="0.25" stop-color="#415AA8" stop-opacity="0.97"/>
<stop offset="0.49" stop-color="#4562AD" stop-opacity="0.89"/>
<stop offset="0.72" stop-color="#4C6FB5" stop-opacity="0.74"/>
<stop offset="0.96" stop-color="#5680C0" stop-opacity="0.54"/>
<stop offset="1" stop-color="#5884C3" stop-opacity="0.5"/>
</linearGradient>
<linearGradient id="paint9_linear_449_780" x1="124.93" y1="107.872" x2="192.112" y2="107.872" gradientUnits="userSpaceOnUse">
<stop stop-color="white" stop-opacity="0"/>
<stop offset="0.1" stop-color="#FDE6E6" stop-opacity="0.15"/>
<stop offset="0.28" stop-color="#FABBBA" stop-opacity="0.4"/>
<stop offset="0.46" stop-color="#F79796" stop-opacity="0.62"/>
<stop offset="0.63" stop-color="#F57B79" stop-opacity="0.78"/>
<stop offset="0.78" stop-color="#F36765" stop-opacity="0.9"/>
<stop offset="0.91" stop-color="#F25A58" stop-opacity="0.97"/>
<stop offset="1" stop-color="#F25654"/>
</linearGradient>
<linearGradient id="paint10_linear_449_780" x1="401.453" y1="143.417" x2="534.289" y2="143.417" gradientUnits="userSpaceOnUse">
<stop stop-color="#4058A6"/>
<stop offset="1" stop-color="#5884C3" stop-opacity="0.1"/>
</linearGradient>
<linearGradient id="paint11_linear_449_780" x1="-nan" y1="-nan" x2="-nan" y2="-nan" gradientUnits="userSpaceOnUse">
<stop stop-color="#4058A6"/>
<stop offset="0.25" stop-color="#415AA8" stop-opacity="0.97"/>
<stop offset="0.49" stop-color="#4562AD" stop-opacity="0.89"/>
<stop offset="0.72" stop-color="#4C6FB5" stop-opacity="0.74"/>
<stop offset="0.96" stop-color="#5680C0" stop-opacity="0.54"/>
<stop offset="1" stop-color="#5884C3" stop-opacity="0.5"/>
</linearGradient>
<linearGradient id="paint12_linear_449_780" x1="-nan" y1="-nan" x2="-nan" y2="-nan" gradientUnits="userSpaceOnUse">
<stop stop-color="#4058A6"/>
<stop offset="0.25" stop-color="#415AA8" stop-opacity="0.97"/>
<stop offset="0.49" stop-color="#4562AD" stop-opacity="0.89"/>
<stop offset="0.72" stop-color="#4C6FB5" stop-opacity="0.74"/>
<stop offset="0.96" stop-color="#5680C0" stop-opacity="0.54"/>
<stop offset="1" stop-color="#5884C3" stop-opacity="0.5"/>
</linearGradient>
<linearGradient id="paint13_linear_449_780" x1="155.479" y1="291.035" x2="200.252" y2="291.035" gradientUnits="userSpaceOnUse">
<stop stop-color="#4059A6"/>
<stop offset="1" stop-color="#5883C2" stop-opacity="0.1"/>
</linearGradient>
<linearGradient id="paint14_linear_449_780" x1="193.368" y1="286.681" x2="200.767" y2="286.681" gradientUnits="userSpaceOnUse">
<stop stop-color="#4059A6"/>
<stop offset="0.25" stop-color="#415BA8" stop-opacity="0.97"/>
<stop offset="0.48" stop-color="#4562AC" stop-opacity="0.89"/>
<stop offset="0.72" stop-color="#4C6EB4" stop-opacity="0.75"/>
<stop offset="0.95" stop-color="#567FBF" stop-opacity="0.55"/>
<stop offset="1" stop-color="#5883C2" stop-opacity="0.5"/>
</linearGradient>
<linearGradient id="paint15_linear_449_780" x1="188.63" y1="288.142" x2="196.024" y2="288.142" gradientUnits="userSpaceOnUse">
<stop stop-color="#4059A6"/>
<stop offset="0.25" stop-color="#415BA8" stop-opacity="0.97"/>
<stop offset="0.48" stop-color="#4562AC" stop-opacity="0.89"/>
<stop offset="0.72" stop-color="#4C6EB4" stop-opacity="0.75"/>
<stop offset="0.95" stop-color="#567FBF" stop-opacity="0.55"/>
<stop offset="1" stop-color="#5883C2" stop-opacity="0.5"/>
</linearGradient>
<linearGradient id="paint16_linear_449_780" x1="183.704" y1="289.612" x2="191.103" y2="289.612" gradientUnits="userSpaceOnUse">
<stop stop-color="#4059A6"/>
<stop offset="0.25" stop-color="#415BA8" stop-opacity="0.97"/>
<stop offset="0.48" stop-color="#4562AC" stop-opacity="0.89"/>
<stop offset="0.72" stop-color="#4C6EB4" stop-opacity="0.75"/>
<stop offset="0.95" stop-color="#567FBF" stop-opacity="0.55"/>
<stop offset="1" stop-color="#5883C2" stop-opacity="0.5"/>
</linearGradient>
</defs>
</svg>
