<svg width="22" height="22" viewBox="0 0 22 22" fill="none" xmlns="http://www.w3.org/2000/svg">
<path d="M11.8749 0.72875C11.6892 0.89375 10.2455 3.75891 10.2455 3.75891L9.17126 8.09188L13.3513 7.70859C13.3513 7.70859 16.8283 1.24266 16.8988 1.09313C17.0242 0.821563 17.0913 0.709844 16.6117 0.709844C16.1322 0.708125 12.0485 0.574063 11.8749 0.72875Z" fill="#176CC7"/>
<path d="M14.0387 7.44036C13.8308 7.32864 7.70513 7.23239 7.56075 7.44036C7.43013 7.62942 7.44903 8.49395 7.51263 8.60567C7.57622 8.71739 9.63528 9.67473 9.63528 9.67473L9.63356 10.0236C9.63356 10.0236 9.747 10.2969 10.8951 10.2969C12.0433 10.2969 12.1618 10.0649 12.1618 10.0649L12.1722 9.71255C12.1722 9.71255 13.9751 8.81192 14.0697 8.73286C14.1659 8.65208 14.2467 7.55208 14.0387 7.44036ZM12.1515 8.87208C12.1515 8.87208 12.1464 8.63145 12.0278 8.5713C11.9092 8.51114 9.99966 8.52145 9.8381 8.53005C9.67653 8.53864 9.67653 8.82739 9.67653 8.82739L8.37028 8.19145V8.06426L13.2343 8.09864L13.2429 8.24301L12.1515 8.87208Z" fill="#FCC417"/>
<path d="M10.1853 8.79492C10.0237 8.79492 9.93091 8.96336 9.93091 9.25383C9.93091 9.52539 10.0237 9.75399 10.2283 9.7368C10.3967 9.72305 10.4551 9.46524 10.4397 9.23664C10.4242 8.96508 10.3898 8.79492 10.1853 8.79492Z" fill="#FDFFFF"/>
<path d="M4.98096 15.5924C4.98096 19.7106 8.70377 21.5445 11.1788 21.4568C13.9081 21.3589 17.1772 19.231 16.9796 15.302C16.7922 11.5792 13.6606 9.81401 10.9485 9.83291C7.79627 9.85526 4.98096 11.9951 4.98096 15.5924Z" fill="#FCC417"/>
<path d="M11.0911 20.7402C11.0481 20.7402 11.0034 20.7402 10.9605 20.7385C9.67141 20.6956 8.39782 20.1524 7.46625 19.2501C6.46938 18.2842 5.92282 16.9779 5.92969 15.5737C5.94516 12.1448 8.94266 10.5549 10.9759 10.5549H10.9931C13.7483 10.567 16.0102 12.7085 16.0738 15.6115C16.1013 16.904 15.5719 18.2601 14.5338 19.281C13.5644 20.2315 12.2788 20.7402 11.0911 20.7402ZM10.9725 11.1256C9.14891 11.1256 6.45219 12.6174 6.44532 15.5737C6.44016 17.784 8.15203 20.0562 11.0034 20.1524C12.0897 20.1868 13.2086 19.7709 14.1127 18.8823C15.0511 17.9593 15.5788 16.7699 15.5598 15.6184C15.5186 13.121 13.4767 11.1342 10.9983 11.1238C10.9914 11.1238 10.9777 11.1256 10.9725 11.1256Z" fill="#FA912C"/>
<path d="M9.93784 10.4174C9.81925 10.2541 8.47518 10.285 7.20503 11.5259C5.97956 12.7239 5.84722 13.8531 6.08268 13.9184C6.34909 13.9924 6.67393 12.7961 7.79628 11.7906C8.82753 10.8694 10.175 10.7422 9.93784 10.4174Z" fill="#FEFFFA"/>
<path d="M15.137 14.8639C14.7228 14.9223 15.1525 16.1632 14.1917 17.552C13.3581 18.7568 12.4128 19.1934 12.5228 19.4581C12.6706 19.8121 14.1848 18.9304 14.8861 17.4935C15.522 16.1924 15.4464 14.8192 15.137 14.8639Z" fill="#FEFFFA"/>
<path d="M9.59921 13.2379C9.50984 13.3702 9.59062 14.5304 9.6439 14.5819C9.74703 14.685 10.5308 14.3155 10.5308 14.3155L10.5016 17.4179C10.5016 17.4179 9.92578 17.411 9.86562 17.4333C9.74703 17.478 9.76249 18.6743 9.85015 18.7327C9.93781 18.7911 12.2873 18.8221 12.3767 18.7035C12.4661 18.5849 12.4437 17.5382 12.4025 17.49C12.3286 17.4007 11.7666 17.4368 11.7666 17.4368C11.7666 17.4368 11.8147 12.8683 11.7992 12.7222C11.7837 12.5761 11.6222 12.485 11.4297 12.5297C11.2372 12.5744 9.65593 13.1519 9.59921 13.2379Z" fill="#FA912C"/>
<path d="M4.38453 0.639324C4.27625 0.739012 8.41672 8.11245 8.41672 8.11245C8.41672 8.11245 9.1111 8.20182 10.6614 8.21557C12.2117 8.22932 12.98 8.1262 12.98 8.1262C12.98 8.1262 9.76078 0.713231 9.56828 0.639324C9.47375 0.601512 8.19844 0.587762 6.95235 0.574012C5.70453 0.558543 4.48766 0.543074 4.38453 0.639324Z" fill="#2E9DF4"/>
</svg>
