<svg width="42" height="33" viewBox="0 0 42 33" fill="none" xmlns="http://www.w3.org/2000/svg">
<g clip-path="url(#clip0_102_103)">
<path d="M9.3375 1C10.4502 1 11.516 1.43923 12.3008 2.21902C13.0854 2.99859 13.525 4.05455 13.525 5.15425C13.525 6.25394 13.0854 7.3099 12.3008 8.08947C11.516 8.86926 10.4502 9.30849 9.3375 9.30849C8.22484 9.30849 7.15903 8.86926 6.37421 8.08947C5.58961 7.3099 5.15 6.25394 5.15 5.15425C5.15 4.05455 5.58961 2.99859 6.37421 2.21902C7.15903 1.43923 8.22484 1 9.3375 1ZM33.2 1C34.3127 1 35.3785 1.43923 36.1633 2.21902C36.9479 2.99859 37.3875 4.05455 37.3875 5.15425C37.3875 6.25394 36.9479 7.3099 36.1633 8.08947C35.3785 8.86926 34.3127 9.30849 33.2 9.30849C32.0873 9.30849 31.0215 8.86926 30.2367 8.08947C29.4521 7.3099 29.0125 6.25394 29.0125 5.15425C29.0125 4.05455 29.4521 2.99859 30.2367 2.21902C31.0215 1.43923 32.0873 1 33.2 1ZM1 19.2447C1 16.0082 3.64574 13.3702 6.91883 13.3702H9.68766C10.3148 13.3702 10.9193 13.4674 11.4878 13.6463C11.4665 13.9074 11.4565 14.1699 11.4565 14.4319C11.4565 16.3542 12.049 18.1387 13.0568 19.617H1.38117C1.16871 19.617 1 19.4401 1 19.2447ZM30.0435 14.4319C30.0435 14.1648 30.0315 13.9025 30.0095 13.6444C30.5759 13.4654 31.1811 13.3702 31.8123 13.3702H34.5812C37.8543 13.3702 40.5 16.0082 40.5 19.2447C40.5 19.4435 40.3344 19.617 40.1188 19.617H28.446C29.4547 18.1379 30.0435 16.3531 30.0435 14.4319ZM15.525 14.4319C15.525 13.0588 16.0739 11.7406 17.0531 10.7677C18.0325 9.79463 19.3622 9.24679 20.75 9.24679C22.1378 9.24679 23.4675 9.79463 24.4469 10.7677C25.4261 11.7406 25.975 13.0588 25.975 14.4319C25.975 15.805 25.4261 17.1231 24.4469 18.096C23.4675 19.0691 22.1378 19.617 20.75 19.617C19.3622 19.617 18.0325 19.0691 17.0531 18.096C16.0739 17.1231 15.525 15.805 15.525 14.4319ZM9.3 31.2669C9.3 27.0834 12.7174 23.6787 16.9437 23.6787H24.5563C28.7826 23.6787 32.2 27.0834 32.2 31.2669C32.2 31.6581 31.8797 31.9872 31.4687 31.9872H10.0313C9.62189 31.9872 9.3 31.6597 9.3 31.2669Z" stroke="#5F88D2" stroke-width="2"/>
</g>
<defs>
<clipPath id="clip0_102_103">
<rect width="41.5" height="32.9872" fill="white"/>
</clipPath>
</defs>
</svg>
