<svg width="48" height="48" viewBox="0 0 48 48" fill="none" xmlns="http://www.w3.org/2000/svg">
<path d="M19.1387 13.3749C19.1387 13.0692 19.2601 12.776 19.4763 12.5598C19.6925 12.3436 19.9857 12.2222 20.2914 12.2222H29.5137C29.8194 12.2222 30.1126 12.3436 30.3288 12.5598C30.545 12.776 30.6664 13.0692 30.6664 13.3749C30.6664 13.6807 30.545 13.9739 30.3288 14.1901C30.1126 14.4063 29.8194 14.5277 29.5137 14.5277H20.2914C19.9857 14.5277 19.6925 14.4063 19.4763 14.1901C19.2601 13.9739 19.1387 13.6807 19.1387 13.3749ZM20.2914 16.8333C19.9857 16.8333 19.6925 16.9547 19.4763 17.1709C19.2601 17.3871 19.1387 17.6803 19.1387 17.9861C19.1387 18.2918 19.2601 18.585 19.4763 18.8012C19.6925 19.0174 19.9857 19.1388 20.2914 19.1388H29.5137C29.8194 19.1388 30.1126 19.0174 30.3288 18.8012C30.545 18.585 30.6664 18.2918 30.6664 17.9861C30.6664 17.6803 30.545 17.3871 30.3288 17.1709C30.1126 16.9547 29.8194 16.8333 29.5137 16.8333H20.2914ZM19.1387 28.3611C19.1387 28.0553 19.2601 27.7621 19.4763 27.5459C19.6925 27.3297 19.9857 27.2083 20.2914 27.2083H29.5137C29.8194 27.2083 30.1126 27.3297 30.3288 27.5459C30.545 27.7621 30.6664 28.0553 30.6664 28.3611C30.6664 28.6668 30.545 28.96 30.3288 29.1762C30.1126 29.3924 29.8194 29.5138 29.5137 29.5138H20.2914C19.9857 29.5138 19.6925 29.3924 19.4763 29.1762C19.2601 28.96 19.1387 28.6668 19.1387 28.3611ZM20.2914 31.8194C19.9857 31.8194 19.6925 31.9408 19.4763 32.157C19.2601 32.3732 19.1387 32.6664 19.1387 32.9722C19.1387 33.2779 19.2601 33.5711 19.4763 33.7873C19.6925 34.0035 19.9857 34.1249 20.2914 34.1249H29.5137C29.8194 34.1249 30.1126 34.0035 30.3288 33.7873C30.545 33.5711 30.6664 33.2779 30.6664 32.9722C30.6664 32.6664 30.545 32.3732 30.3288 32.157C30.1126 31.9408 29.8194 31.8194 29.5137 31.8194H20.2914Z" fill="#5F88D2"/>
<path fill-rule="evenodd" clip-rule="evenodd" d="M7.61133 27.2083C7.61133 26.9026 7.73278 26.6094 7.94897 26.3932C8.16516 26.177 8.45837 26.0555 8.76411 26.0555H14.528C14.8337 26.0555 15.1269 26.177 15.3431 26.3932C15.5593 26.6094 15.6808 26.9026 15.6808 27.2083V32.9722C15.6808 33.2779 15.5593 33.5712 15.3431 33.7873C15.1269 34.0035 14.8337 34.125 14.528 34.125H8.76411C8.45837 34.125 8.16516 34.0035 7.94897 33.7873C7.73278 33.5712 7.61133 33.2779 7.61133 32.9722V27.2083ZM9.91688 28.3611V31.8194H13.3752V28.3611H9.91688Z" fill="#5F88D2"/>
<path d="M16.4963 14.1901C16.7063 13.9727 16.8225 13.6815 16.8198 13.3792C16.8172 13.077 16.696 12.7878 16.4822 12.5741C16.2685 12.3604 15.9794 12.2391 15.6771 12.2365C15.3749 12.2339 15.0837 12.3501 14.8662 12.56L11.0701 16.3561L9.5796 14.8656C9.36219 14.6556 9.07099 14.5394 8.76874 14.542C8.46648 14.5447 8.17735 14.6659 7.96362 14.8796C7.74988 15.0934 7.62865 15.3825 7.62602 15.6848C7.62339 15.987 7.73959 16.2782 7.94957 16.4956L11.0701 19.6162L16.4963 14.1901Z" fill="#5F88D2"/>
<path fill-rule="evenodd" clip-rule="evenodd" d="M7.61111 3C6.38817 3 5.21531 3.48581 4.35056 4.35056C3.48581 5.21531 3 6.38817 3 7.61111V39.8889C3 41.1118 3.48581 42.2847 4.35056 43.1494C5.21531 44.0142 6.38817 44.5 7.61111 44.5H30.6667C31.8896 44.5 33.0625 44.0142 33.9272 43.1494C34.792 42.2847 35.2778 41.1118 35.2778 39.8889V7.61111C35.2778 6.38817 34.792 5.21531 33.9272 4.35056C33.0625 3.48581 31.8896 3 30.6667 3H7.61111ZM5.30556 7.61111C5.30556 6.99964 5.54846 6.41321 5.98084 5.98084C6.41321 5.54846 6.99964 5.30556 7.61111 5.30556H30.6667C31.2781 5.30556 31.8646 5.54846 32.2969 5.98084C32.7293 6.41321 32.9722 6.99964 32.9722 7.61111V39.8889C32.9722 40.5004 32.7293 41.0868 32.2969 41.5192C31.8646 41.9515 31.2781 42.1944 30.6667 42.1944H7.61111C6.99964 42.1944 6.41321 41.9515 5.98084 41.5192C5.54846 41.0868 5.30556 40.5004 5.30556 39.8889V7.61111ZM37.5833 14.5278C37.5833 13.6106 37.9477 12.7309 38.5963 12.0824C39.2448 11.4338 40.1245 11.0694 41.0417 11.0694C41.9589 11.0694 42.8385 11.4338 43.4871 12.0824C44.1356 12.7309 44.5 13.6106 44.5 14.5278V37.9326L41.0417 43.1201L37.5833 37.9326V14.5278ZM41.0417 13.375C40.7359 13.375 40.4427 13.4965 40.2265 13.7126C40.0103 13.9288 39.8889 14.222 39.8889 14.5278V16.8333H42.1944V14.5278C42.1944 14.222 42.073 13.9288 41.8568 13.7126C41.6406 13.4965 41.3474 13.375 41.0417 13.375ZM41.0417 38.9632L39.8889 37.234V19.1389H42.1944V37.234L41.0417 38.9632Z" fill="#5F88D2"/>
</svg>
