<svg width="42" height="42" viewBox="0 0 42 42" fill="none" xmlns="http://www.w3.org/2000/svg">
<path d="M39.7715 31.125L35.6215 36.6583C35.3189 37.1081 34.9051 37.4718 34.4203 37.7142C33.9355 37.9567 33.3962 38.0694 32.8548 38.0416H20.7507C20.2925 38.0403 19.8534 37.8576 19.5295 37.5337C19.2055 37.2097 19.0229 36.7706 19.0215 36.3125V25.9375C19.0229 25.4793 19.2055 25.0402 19.5295 24.7163C19.8534 24.3923 20.2925 24.2097 20.7507 24.2083H32.8548C33.3897 24.2195 33.9153 24.3494 34.3938 24.5887C34.8723 24.8279 35.2916 25.1705 35.6215 25.5916L39.7715 31.125ZM36.3131 10.375H5.18815V3.45829H36.3131V10.375ZM3.45898 1.72913V12.1041H38.0423V1.72913" fill="#5F88D2"/>
<path d="M6.91732 5.1875H10.3757V8.64583H6.91732V5.1875ZM5.18815 24.2083V17.2917H36.3131V23.0498L38.0423 25.3617V15.5625H3.45898V25.9375H15.5632V24.2083H5.18815Z" fill="#5F88D2"/>
<path d="M6.91602 19.0209H10.3743V22.4792H6.91602V19.0209ZM6.91602 32.8542H10.3743V36.3125H6.91602V32.8542Z" fill="#5F88D2"/>
<path d="M5.18815 38.0417V31.125H15.5632V29.3959H3.45898V39.7709H15.5632V38.0417H5.18815Z" fill="#5F88D2"/>
</svg>
