<svg width="48" height="41" viewBox="0 0 48 41" fill="none" xmlns="http://www.w3.org/2000/svg">
<path fill-rule="evenodd" clip-rule="evenodd" d="M46.2857 0H27.4286L26.2286 0.514286L24 2.70857L21.7714 0.514286L20.5714 0H1.71429L0 1.71429V36L1.71429 37.7143H19.8514L22.8 40.6286H25.2L28.1486 37.7143H46.2857L48 36V1.71429L46.2857 0ZM22.2857 35.3829L21.6686 34.8L20.5714 34.2857H3.42857V3.42857H19.8514L22.3886 5.96571L22.2857 35.3829ZM44.5714 34.2857H27.4286L26.2286 34.8L25.7486 35.2457V5.82857L28.1486 3.42857H44.5714V34.2857ZM17.1429 10.2857H6.85714V13.7143H17.1429V10.2857ZM17.1429 24H6.85714V27.4286H17.1429V24ZM6.85714 17.1429H17.1429V20.5714H6.85714V17.1429ZM41.1429 10.2857H30.8571V13.7143H41.1429V10.2857ZM30.8571 17.1429H41.1429V20.5714H30.8571V17.1429ZM30.8571 24H41.1429V27.4286H30.8571V24Z" fill="#5F88D2"/>
</svg>
