<svg width="22" height="22" viewBox="0 0 22 22" fill="none" xmlns="http://www.w3.org/2000/svg">
<path d="M11.8749 0.72875C11.6892 0.89375 10.2455 3.75891 10.2455 3.75891L9.17126 8.09188L13.3513 7.70859C13.3513 7.70859 16.8283 1.24266 16.8988 1.09313C17.0242 0.821563 17.0913 0.709844 16.6117 0.709844C16.1322 0.708125 12.0485 0.574063 11.8749 0.72875Z" fill="#176CC7"/>
<path d="M14.0387 7.44036C13.8308 7.32864 7.70515 7.23239 7.56078 7.44036C7.43015 7.62942 7.50406 8.62114 7.5539 8.73973C7.64328 8.94598 9.62156 9.84489 9.62156 9.84489L9.58375 10.254C9.58375 10.254 9.74531 10.2952 10.8952 10.2952C12.045 10.2952 12.2719 10.2368 12.2719 10.2368L12.2753 9.86723C12.2753 9.86723 14.0559 9.00098 14.1453 8.88067C14.2209 8.78098 14.2467 7.55208 14.0387 7.44036ZM12.2152 9.00786C12.2152 9.00786 12.2719 8.7552 12.1533 8.69676C12.0347 8.63661 9.99968 8.66411 9.83812 8.6727C9.67656 8.6813 9.67656 8.97005 9.67656 8.97005L8.39437 8.31005L8.37031 8.06426L13.2344 8.09864L13.2172 8.33067L12.2152 9.00786Z" fill="#F79429"/>
<path d="M10.1853 8.9187C10.0237 8.9187 9.93091 9.08714 9.93091 9.37761C9.93091 9.64917 10.0237 9.87776 10.2283 9.86058C10.3967 9.84683 10.4551 9.58901 10.4397 9.36042C10.4242 9.08714 10.3898 8.9187 10.1853 8.9187Z" fill="#FDFFFF"/>
<path d="M5.03766 15.8281C5.03766 19.9462 8.76907 21.6598 11.2458 21.5859C14.1316 21.4999 17.2356 19.3103 16.9795 15.3812C16.7389 11.6945 13.6348 10.0032 10.9227 10.0221C7.77047 10.0462 5.03766 12.2307 5.03766 15.8281Z" fill="#F79429"/>
<path d="M11.1151 20.9636C11.0722 20.9636 11.0275 20.9636 10.9845 20.9619C9.69546 20.9189 8.42186 20.3758 7.4903 19.4735C6.49343 18.5075 5.94686 17.2013 5.95374 15.7971C5.96921 12.3682 8.96671 10.7783 11 10.7783H11.0172C13.7723 10.7904 16.0342 12.9319 16.0978 15.8349C16.1253 17.1274 15.7128 18.413 14.6747 19.4339C13.7053 20.3827 12.3028 20.9636 11.1151 20.9636ZM10.9966 11.3489C9.17296 11.3489 6.47624 12.8408 6.46936 15.7971C6.46421 18.0074 8.17608 20.2796 11.0275 20.3758C12.1137 20.4102 13.3392 20.008 14.2416 19.1211C15.18 18.1982 15.6011 16.995 15.5822 15.8435C15.5409 13.3461 13.4991 11.3593 11.0206 11.3489C11.0155 11.3455 11.0017 11.3489 10.9966 11.3489Z" fill="#D25116"/>
<path d="M9.98419 10.5652C9.8656 10.4019 8.65044 10.4483 7.34247 11.5741C6.0431 12.693 5.84888 13.9305 6.08263 13.9958C6.34903 14.0697 6.67388 12.8735 7.79622 11.868C8.82747 10.9485 10.2197 10.89 9.98419 10.5652Z" fill="#FEFFFA"/>
<path d="M15.2075 15.0631C14.7933 15.1215 15.223 16.3624 14.2622 17.7512C13.4286 18.956 12.4833 19.3926 12.5933 19.6573C12.7411 20.0114 14.2553 19.1296 14.9566 17.6928C15.5908 16.3917 15.5152 15.0184 15.2075 15.0631Z" fill="#FEFFFA"/>
<path d="M4.38453 0.639324C4.27625 0.739012 8.41672 8.11245 8.41672 8.11245C8.41672 8.11245 9.1111 8.20182 10.6614 8.21557C12.2117 8.22932 12.98 8.1262 12.98 8.1262C12.98 8.1262 9.76078 0.713231 9.56828 0.639324C9.47375 0.601512 8.19844 0.587762 6.95235 0.574012C5.70453 0.558543 4.48766 0.543074 4.38453 0.639324Z" fill="#2E9DF4"/>
<path d="M12.882 14.3875C12.6827 12.6602 10.6717 12.5158 9.83813 13.1793C9.02688 13.8255 9.10422 14.7261 9.67313 14.831C10.1217 14.9135 10.2386 14.5577 10.3692 14.3944C10.6648 14.0283 11.1358 13.9939 11.4434 14.2878C11.7923 14.623 11.5775 15.4239 11.0533 15.4566C10.6631 15.4807 10.4655 15.46 10.4156 15.5271C10.3452 15.6216 10.3555 16.3658 10.4277 16.4483C10.5102 16.5428 10.8402 16.4844 11.1238 16.4947C11.5139 16.5102 11.9281 17.0877 11.6548 17.5208C11.3713 17.9694 10.6167 17.7683 10.3452 17.4968C9.98594 17.1375 9.62672 17.3438 9.50641 17.4847C9.31735 17.7082 9.11626 18.2169 9.81407 18.7119C10.5102 19.2069 12.6225 19.3014 13.0488 17.7683C13.42 16.4294 12.5538 15.8794 12.5538 15.8794C12.5538 15.8794 12.9955 15.3724 12.882 14.3875Z" fill="#D25116"/>
</svg>
