<svg width="89" height="73" viewBox="0 0 89 73" fill="none" xmlns="http://www.w3.org/2000/svg">
<path d="M8.12499 48.625H48.5417C49.6136 48.625 50.6416 49.0508 51.3995 49.8088C52.1575 50.5667 52.5833 51.5947 52.5833 52.6667C52.5833 53.7386 52.1575 54.7666 51.3995 55.5246C50.6416 56.2825 49.6136 56.7083 48.5417 56.7083H8.12499C7.05307 56.7083 6.02506 56.2825 5.2671 55.5246C4.50914 54.7666 4.08332 53.7386 4.08332 52.6667C4.08332 51.5947 4.50914 50.5667 5.2671 49.8088C6.02506 49.0508 7.05307 48.625 8.12499 48.625ZM60.6667 48.625H80.875C81.9469 48.625 82.9749 49.0508 83.7329 49.8088C84.4908 50.5667 84.9167 51.5947 84.9167 52.6667C84.9167 53.7386 84.4908 54.7666 83.7329 55.5246C82.9749 56.2825 81.9469 56.7083 80.875 56.7083H60.6667C59.5947 56.7083 58.5667 56.2825 57.8088 55.5246C57.0508 54.7666 56.625 53.7386 56.625 52.6667C56.625 51.5947 57.0508 50.5667 57.8088 49.8088C58.5667 49.0508 59.5947 48.625 60.6667 48.625ZM0.0416565 36.5C0.0416565 31.1404 2.17074 26.0003 5.96054 22.2106C9.75034 18.4208 14.8904 16.2917 20.25 16.2917C24.2917 6.79375 33.5875 0.125 44.5 0.125C58.3629 0.125 69.72 10.8758 70.7708 24.4962L72.7917 24.375C81.6429 24.375 88.8371 31.4883 88.9583 40.5417H80.875C80.875 38.3978 80.0234 36.3418 78.5074 34.8259C76.9915 33.31 74.9355 32.4583 72.7917 32.4583H64.7083V28.4167C64.7083 23.0571 62.5792 17.917 58.7894 14.1272C54.9996 10.3374 49.8596 8.20833 44.5 8.20833C34.3958 8.20833 26.1104 15.5642 24.5342 25.1429C23.2004 24.6579 21.7454 24.375 20.25 24.375C17.0342 24.375 13.9502 25.6524 11.6763 27.9263C9.40244 30.2002 8.12499 33.2842 8.12499 36.5C8.12295 37.8765 8.3553 39.2432 8.81207 40.5417H0.445823L0.0416565 36.5ZM8.12499 64.7917H16.2083C17.2802 64.7917 18.3083 65.2175 19.0662 65.9754C19.8242 66.7334 20.25 67.7614 20.25 68.8333C20.25 69.9053 19.8242 70.9333 19.0662 71.6912C18.3083 72.4492 17.2802 72.875 16.2083 72.875H8.12499C7.05307 72.875 6.02506 72.4492 5.2671 71.6912C4.50914 70.9333 4.08332 69.9053 4.08332 68.8333C4.08332 67.7614 4.50914 66.7334 5.2671 65.9754C6.02506 65.2175 7.05307 64.7917 8.12499 64.7917ZM28.3333 64.7917H80.875C81.9469 64.7917 82.9749 65.2175 83.7329 65.9754C84.4908 66.7334 84.9167 67.7614 84.9167 68.8333C84.9167 69.9053 84.4908 70.9333 83.7329 71.6912C82.9749 72.4492 81.9469 72.875 80.875 72.875H28.3333C27.2614 72.875 26.2334 72.4492 25.4754 71.6912C24.7175 70.9333 24.2917 69.9053 24.2917 68.8333C24.2917 67.7614 24.7175 66.7334 25.4754 65.9754C26.2334 65.2175 27.2614 64.7917 28.3333 64.7917Z" fill="#2CAFFE"/>
</svg>
