<svg width="20" height="20" viewBox="0 0 20 20" fill="none" xmlns="http://www.w3.org/2000/svg">
<path d="M10 0C10.2947 0 10.5773 0.117063 10.7857 0.325437C10.994 0.533811 11.1111 0.816426 11.1111 1.11111V7.77778C11.1111 8.07246 10.994 8.35508 10.7857 8.56345C10.5773 8.77183 10.2947 8.88889 10 8.88889H1.11111C0.816426 8.88889 0.533811 8.77183 0.325437 8.56345C0.117063 8.35508 0 8.07246 0 7.77778V1.11111C0 0.816426 0.117063 0.533811 0.325437 0.325437C0.533811 0.117063 0.816426 0 1.11111 0H10ZM18.8889 0C19.1836 0 19.4662 0.117063 19.6746 0.325437C19.8829 0.533811 20 0.816426 20 1.11111V7.77778C20 8.07246 19.8829 8.35508 19.6746 8.56345C19.4662 8.77183 19.1836 8.88889 18.8889 8.88889H14.4444C14.1498 8.88889 13.8671 8.77183 13.6588 8.56345C13.4504 8.35508 13.3333 8.07246 13.3333 7.77778V1.11111C13.3333 0.816426 13.4504 0.533811 13.6588 0.325437C13.8671 0.117063 14.1498 0 14.4444 0H18.8889ZM18.8889 11.1111C19.1836 11.1111 19.4662 11.2282 19.6746 11.4365C19.8829 11.6449 20 11.9275 20 12.2222V18.8889C20 19.1836 19.8829 19.4662 19.6746 19.6746C19.4662 19.8829 19.1836 20 18.8889 20H10C9.70532 20 9.4227 19.8829 9.21433 19.6746C9.00595 19.4662 8.88889 19.1836 8.88889 18.8889V12.2222C8.88889 11.9275 9.00595 11.6449 9.21433 11.4365C9.4227 11.2282 9.70532 11.1111 10 11.1111H18.8889ZM0 12.2222C0 11.9275 0.117063 11.6449 0.325437 11.4365C0.533811 11.2282 0.816426 11.1111 1.11111 11.1111H5.55556C5.85024 11.1111 6.13286 11.2282 6.34123 11.4365C6.5496 11.6449 6.66667 11.9275 6.66667 12.2222V18.8889C6.66667 19.1836 6.5496 19.4662 6.34123 19.6746C6.13286 19.8829 5.85024 20 5.55556 20H1.11111C0.816426 20 0.533811 19.8829 0.325437 19.6746C0.117063 19.4662 0 19.1836 0 18.8889V12.2222Z" fill="white"/>
</svg>
