<svg width="36" height="36" viewBox="0 0 36 36" fill="none" xmlns="http://www.w3.org/2000/svg">
<path d="M15.6 21.6C15.2817 21.6 14.9765 21.4736 14.7515 21.2485C14.5264 21.0235 14.4 20.7183 14.4 20.4V7.2552C11.902 7.48358 9.52084 8.41899 7.53531 9.95187C5.54978 11.4848 4.04212 13.5516 3.1889 15.9105C2.33569 18.2693 2.17224 20.8224 2.7177 23.2708C3.26316 25.7191 4.49495 27.9614 6.2688 29.735C8.04265 31.5085 10.2851 32.7399 12.7336 33.285C15.182 33.83 17.7351 33.6662 20.0938 32.8125C22.4525 31.9589 24.5191 30.4509 26.0517 28.4651C27.5842 26.4794 28.5192 24.098 28.7472 21.6H15.6ZM16.8 19.2H30C30.3183 19.2 30.6235 19.3264 30.8485 19.5515C31.0736 19.7765 31.2 20.0817 31.2 20.4C31.2 23.4854 30.2851 26.5015 28.5709 29.0669C26.8568 31.6323 24.4204 33.6318 21.5699 34.8125C18.7193 35.9932 15.5827 36.3022 12.5566 35.7002C9.53049 35.0983 6.75084 33.6126 4.56914 31.4309C2.38744 29.2492 0.901686 26.4695 0.299757 23.4434C-0.302173 20.4173 0.00675924 17.2807 1.18749 14.4301C2.36821 11.5796 4.3677 9.14322 6.93311 7.42907C9.49852 5.71492 12.5146 4.8 15.6 4.8C15.9183 4.8 16.2235 4.92643 16.4485 5.15147C16.6736 5.37651 16.8 5.68174 16.8 6V19.2ZM21.6 2.4672V14.4H33.5328C32.8704 8.5248 27.4752 3.1296 21.6 2.4672ZM34.8 16.8H20.4C20.0817 16.8 19.7765 16.6736 19.5515 16.4485C19.3264 16.2235 19.2 15.9183 19.2 15.6V1.2C19.2 0.88174 19.3264 0.576515 19.5515 0.351472C19.7765 0.126428 20.0817 0 20.4 0C28.4472 0 36 7.5528 36 15.6C36 15.9183 35.8736 16.2235 35.6485 16.4485C35.4235 16.6736 35.1183 16.8 34.8 16.8ZM14.7515 21.2485C14.6399 21.137 14.5503 21.0056 14.4899 20.8598C14.4296 20.714 14.4 20.5578 14.4 20.4C14.4 20.2422 14.4296 20.086 14.4899 19.9402C14.5503 19.7944 14.6388 19.662 14.7504 19.5504C14.862 19.4388 14.9944 19.3503 15.1402 19.2899C15.286 19.2296 15.4422 19.1985 15.6 19.1985C15.7578 19.1985 15.914 19.2296 16.0598 19.2899C16.2056 19.3503 16.338 19.4388 16.4496 19.5504L26.0496 29.1504C26.2749 29.3757 26.4015 29.6813 26.4015 30C26.4015 30.3187 26.2749 30.6243 26.0496 30.8496C25.8243 31.0749 25.5187 31.2015 25.2 31.2015C24.8813 31.2015 24.5757 31.0749 24.3504 30.8496L14.7515 21.2485Z" fill="white"/>
</svg>
