<svg width="34" height="34" viewBox="0 0 34 34" fill="none" xmlns="http://www.w3.org/2000/svg">
<path d="M27.9792 21.8641V4.60417C27.9792 4.22844 27.8299 3.86811 27.5642 3.60243C27.2986 3.33676 26.9382 3.1875 26.5625 3.1875H7.4375C7.06178 3.1875 6.70144 3.33676 6.43577 3.60243C6.17009 3.86811 6.02084 4.22844 6.02084 4.60417V29.3958C6.02084 29.7716 6.17009 30.1319 6.43577 30.3976C6.70144 30.6632 7.06178 30.8125 7.4375 30.8125H26.5625C26.9382 30.8125 27.2986 30.6632 27.5642 30.3976C27.8299 30.1319 27.9792 29.7716 27.9792 29.3958V28.3553" stroke="#2CAFFE" stroke-opacity="0.75" stroke-linecap="round" stroke-linejoin="round"/>
<path d="M26.3033 26.6758L15.079 15.424V12.2188M26.3033 26.6758L29.541 23.4303M26.3033 26.6758L28.1527 28.5288C28.2589 28.6352 28.385 28.7195 28.5238 28.777C28.6626 28.8346 28.8114 28.8642 28.9616 28.8642C29.1119 28.8642 29.2607 28.8346 29.3995 28.777C29.5383 28.7195 29.6644 28.6352 29.7705 28.5288L31.3898 26.906C31.6045 26.6906 31.725 26.3988 31.725 26.0946C31.725 25.7905 31.6045 25.4987 31.3898 25.2833L29.541 23.4303M15.079 12.2188H18.36L29.541 23.4303M15.079 12.2188H9.20834M9.20834 7.4375H24.7917M23.1285 17H24.7917M9.20834 17H16.6515M9.20834 21.7813H21.2422M9.20834 26.5625H24.7917" stroke="#2CAFFE" stroke-opacity="0.75" stroke-linecap="round" stroke-linejoin="round"/>
</svg>
