<svg width="22" height="22" viewBox="0 0 22 22" fill="none" xmlns="http://www.w3.org/2000/svg">
<path d="M11.8749 0.72875C11.6892 0.89375 10.2455 3.75891 10.2455 3.75891L9.17126 8.09188L13.3513 7.70859C13.3513 7.70859 16.8283 1.24266 16.8988 1.09313C17.0242 0.821563 17.0913 0.709844 16.6117 0.709844C16.1322 0.708125 12.0485 0.574063 11.8749 0.72875Z" fill="#176CC7"/>
<path d="M14.0387 7.44036C13.8308 7.32864 7.70515 7.23239 7.56078 7.44036C7.43015 7.62942 7.50406 8.62114 7.5539 8.73973C7.64328 8.94598 9.62156 9.84489 9.62156 9.84489L9.58375 10.254C9.58375 10.254 9.74531 10.2952 10.8952 10.2952C12.045 10.2952 12.2719 10.2368 12.2719 10.2368L12.2753 9.86723C12.2753 9.86723 14.0559 9.00098 14.1453 8.88067C14.2209 8.78098 14.2467 7.55208 14.0387 7.44036ZM12.2152 9.00786C12.2152 9.00786 12.2719 8.7552 12.1533 8.69676C12.0347 8.63661 9.99968 8.66411 9.83812 8.6727C9.67656 8.6813 9.67656 8.97005 9.67656 8.97005L8.37031 8.19145V8.06426L13.2344 8.09864L13.243 8.24301L12.2152 9.00786Z" fill="#CECDD2"/>
<path d="M10.1853 8.79492C10.0237 8.79492 9.93091 8.96336 9.93091 9.25383C9.93091 9.52539 10.0237 9.75399 10.2283 9.7368C10.3967 9.72305 10.4551 9.46524 10.4397 9.23664C10.4242 8.96508 10.3898 8.79492 10.1853 8.79492Z" fill="#FDFFFF"/>
<path d="M4.97925 15.7937C4.97925 19.9118 8.76909 21.6598 11.2458 21.5859C14.1316 21.4999 17.1772 19.3103 16.9796 15.3812C16.7922 11.6584 13.6349 10.0032 10.9227 10.0221C7.7705 10.0462 4.97925 12.1964 4.97925 15.7937Z" fill="#CECDD2"/>
<path d="M11.0911 20.8191C11.0481 20.8191 11.0034 20.8191 10.9605 20.8174C9.67141 20.7744 8.39782 20.2313 7.46625 19.3289C6.46938 18.363 5.92282 17.0568 5.92969 15.6525C5.94516 12.2236 8.94266 10.6338 10.9759 10.6338H10.9931C13.7483 10.6458 16.0102 12.7874 16.0738 15.6904C16.1013 16.9829 15.5719 18.3389 14.5338 19.3599C13.5644 20.3104 12.2788 20.8191 11.0911 20.8191ZM10.9725 11.2044C9.14891 11.2044 6.45219 12.6963 6.44532 15.6525C6.44016 17.8629 8.15203 20.135 11.0034 20.2313C12.0897 20.2657 13.2086 19.8497 14.1127 18.9611C15.0511 18.0382 15.5788 16.8488 15.5598 15.6972C15.5152 13.1999 13.4733 11.213 10.9948 11.201C10.9914 11.201 10.9777 11.2044 10.9725 11.2044Z" fill="#9B9B9D"/>
<path d="M9.98419 10.5652C9.8656 10.4019 8.65044 10.4483 7.34247 11.5741C6.0431 12.693 5.84888 13.9305 6.08263 13.9958C6.34903 14.0697 6.67388 12.8735 7.79622 11.868C8.82747 10.9485 10.2197 10.89 9.98419 10.5652Z" fill="#FEFFFA"/>
<path d="M15.1044 15.0769C14.6902 15.1353 15.1198 16.3763 14.1591 17.765C13.3255 18.9699 12.3802 19.4064 12.4902 19.6711C12.638 20.0252 14.1522 19.1435 14.8534 17.7066C15.4877 16.4072 15.412 15.0339 15.1044 15.0769Z" fill="#FEFFFA"/>
<path d="M4.38453 0.639324C4.27625 0.739012 8.41672 8.11245 8.41672 8.11245C8.41672 8.11245 9.1111 8.20183 10.6614 8.21557C12.2117 8.22932 12.98 8.1262 12.98 8.1262C12.98 8.1262 9.76078 0.713231 9.56828 0.639324C9.47375 0.601512 8.19844 0.587762 6.95235 0.574012C5.70453 0.558543 4.48766 0.543074 4.38453 0.639324Z" fill="#2E9DF4"/>
<path d="M9.77107 14.8413C9.94982 14.8431 10.1097 14.6007 10.2575 14.4529C10.572 14.1367 10.902 13.8857 11.2784 14.226C12.2031 15.0665 10.3469 15.919 9.64217 17.0843C9.11623 17.954 9.00967 18.6226 9.15576 18.8013C9.30186 18.9801 12.8579 18.9715 12.9061 18.8821C12.9542 18.7927 13.004 17.6017 12.9215 17.5449C12.839 17.4882 11.0911 17.5209 11.0911 17.5209C11.0911 17.5209 11.2372 17.1806 11.837 16.6615C12.4953 16.0926 13.0229 15.3106 12.882 14.3859C12.5898 12.4746 10.6648 12.4042 9.83123 13.0693C9.01826 13.7173 9.19357 14.8345 9.77107 14.8413Z" fill="#9B9B9D"/>
</svg>
