<svg width="20" height="20" viewBox="0 0 20 20" fill="none" xmlns="http://www.w3.org/2000/svg">
<path d="M7.77777 5.00001C7.77777 4.85267 7.8363 4.71136 7.94049 4.60718C8.04468 4.50299 8.18598 4.44446 8.33333 4.44446H12.7778C12.9251 4.44446 13.0664 4.50299 13.1706 4.60718C13.2748 4.71136 13.3333 4.85267 13.3333 5.00001C13.3333 5.14736 13.2748 5.28866 13.1706 5.39285C13.0664 5.49704 12.9251 5.55557 12.7778 5.55557H8.33333C8.18598 5.55557 8.04468 5.49704 7.94049 5.39285C7.8363 5.28866 7.77777 5.14736 7.77777 5.00001ZM8.33333 6.66668C8.18598 6.66668 8.04468 6.72521 7.94049 6.8294C7.8363 6.93359 7.77777 7.07489 7.77777 7.22224C7.77777 7.36958 7.8363 7.51089 7.94049 7.61507C8.04468 7.71926 8.18598 7.77779 8.33333 7.77779H12.7778C12.9251 7.77779 13.0664 7.71926 13.1706 7.61507C13.2748 7.51089 13.3333 7.36958 13.3333 7.22224C13.3333 7.07489 13.2748 6.93359 13.1706 6.8294C13.0664 6.72521 12.9251 6.66668 12.7778 6.66668H8.33333ZM7.77777 12.2222C7.77777 12.0749 7.8363 11.9336 7.94049 11.8294C8.04468 11.7252 8.18598 11.6667 8.33333 11.6667H12.7778C12.9251 11.6667 13.0664 11.7252 13.1706 11.8294C13.2748 11.9336 13.3333 12.0749 13.3333 12.2222C13.3333 12.3696 13.2748 12.5109 13.1706 12.6151C13.0664 12.7193 12.9251 12.7778 12.7778 12.7778H8.33333C8.18598 12.7778 8.04468 12.7193 7.94049 12.6151C7.8363 12.5109 7.77777 12.3696 7.77777 12.2222ZM8.33333 13.8889C8.18598 13.8889 8.04468 13.9474 7.94049 14.0516C7.8363 14.1558 7.77777 14.2971 7.77777 14.4445C7.77777 14.5918 7.8363 14.7331 7.94049 14.8373C8.04468 14.9415 8.18598 15 8.33333 15H12.7778C12.9251 15 13.0664 14.9415 13.1706 14.8373C13.2748 14.7331 13.3333 14.5918 13.3333 14.4445C13.3333 14.2971 13.2748 14.1558 13.1706 14.0516C13.0664 13.9474 12.9251 13.8889 12.7778 13.8889H8.33333Z" fill="white"/>
<path fill-rule="evenodd" clip-rule="evenodd" d="M2.22223 11.6666C2.22223 11.5193 2.28076 11.378 2.38495 11.2738C2.48913 11.1696 2.63044 11.1111 2.77778 11.1111H5.55556C5.7029 11.1111 5.84421 11.1696 5.9484 11.2738C6.05259 11.378 6.11112 11.5193 6.11112 11.6666V14.4444C6.11112 14.5918 6.05259 14.7331 5.9484 14.8373C5.84421 14.9414 5.7029 15 5.55556 15H2.77778C2.63044 15 2.48913 14.9414 2.38495 14.8373C2.28076 14.7331 2.22223 14.5918 2.22223 14.4444V11.6666ZM3.33334 12.2222V13.8889H5.00001V12.2222H3.33334Z" fill="white"/>
<path d="M6.50389 5.3928C6.60509 5.28802 6.66109 5.14769 6.65982 5.00202C6.65855 4.85636 6.60013 4.71702 6.49712 4.61401C6.39412 4.51101 6.25478 4.45258 6.10911 4.45131C5.96345 4.45005 5.82311 4.50605 5.71833 4.60724L3.88889 6.43669L3.17056 5.71836C3.06578 5.61716 2.92544 5.56116 2.77978 5.56243C2.63411 5.56369 2.49477 5.62212 2.39177 5.72512C2.28876 5.82813 2.23034 5.96747 2.22907 6.11313C2.2278 6.2588 2.2838 6.39913 2.385 6.50391L3.88889 8.0078L6.50389 5.3928Z" fill="white"/>
<path fill-rule="evenodd" clip-rule="evenodd" d="M2.22222 0C1.63285 0 1.06762 0.234126 0.650874 0.650874C0.234126 1.06762 0 1.63285 0 2.22222V17.7778C0 18.3671 0.234126 18.9324 0.650874 19.3491C1.06762 19.7659 1.63285 20 2.22222 20H13.3333C13.9227 20 14.4879 19.7659 14.9047 19.3491C15.3214 18.9324 15.5556 18.3671 15.5556 17.7778V2.22222C15.5556 1.63285 15.3214 1.06762 14.9047 0.650874C14.4879 0.234126 13.9227 0 13.3333 0H2.22222ZM1.11111 2.22222C1.11111 1.92754 1.22817 1.64492 1.43655 1.43655C1.64492 1.22817 1.92754 1.11111 2.22222 1.11111H13.3333C13.628 1.11111 13.9106 1.22817 14.119 1.43655C14.3274 1.64492 14.4444 1.92754 14.4444 2.22222V17.7778C14.4444 18.0725 14.3274 18.3551 14.119 18.5635C13.9106 18.7718 13.628 18.8889 13.3333 18.8889H2.22222C1.92754 18.8889 1.64492 18.7718 1.43655 18.5635C1.22817 18.3551 1.11111 18.0725 1.11111 17.7778V2.22222ZM16.6667 5.55556C16.6667 5.11353 16.8423 4.6896 17.1548 4.37704C17.4674 4.06448 17.8913 3.88889 18.3333 3.88889C18.7754 3.88889 19.1993 4.06448 19.5118 4.37704C19.8244 4.6896 20 5.11353 20 5.55556V16.835L18.3333 19.335L16.6667 16.835V5.55556ZM18.3333 5C18.186 5 18.0447 5.05853 17.9405 5.16272C17.8363 5.26691 17.7778 5.40821 17.7778 5.55556V6.66667H18.8889V5.55556C18.8889 5.40821 18.8304 5.26691 18.7262 5.16272C18.622 5.05853 18.4807 5 18.3333 5ZM18.3333 17.3317L17.7778 16.4983V7.77778H18.8889V16.4983L18.3333 17.3317Z" fill="white"/>
</svg>
