<svg width="22" height="22" viewBox="0 0 22 22" fill="none" xmlns="http://www.w3.org/2000/svg">
<path d="M8.63498 19.0851L7.97498 16.1151L5.16998 17.3526L8.93748 9.87256L12.4025 11.6051L8.63498 19.0851Z" fill="#E64C45"/>
<path d="M8.52503 19.91L7.78253 16.5L4.59253 17.93L8.82753 9.48755L12.7875 11.4675L8.52503 19.91ZM8.16753 15.73L8.74503 18.2875L12.045 11.715L9.07503 10.23L5.77503 16.8025L8.16753 15.73Z" fill="#231C1C"/>
<path d="M13.42 19.0851L14.08 16.1151L16.885 17.3526L13.1175 9.87256L9.65253 11.6051L13.42 19.0851Z" fill="#E64C45"/>
<path d="M13.53 19.91L9.29498 11.4675L13.255 9.48755L17.49 17.93L14.3 16.5L13.53 19.91ZM10.0375 11.715L13.3375 18.2875L13.915 15.73L16.3075 16.8025L13.0075 10.23L10.0375 11.715Z" fill="#231C1C"/>
<path d="M15.455 13.0899L13.3925 13.3374L11.88 14.7399L10.065 13.7499L8.00253 13.9974L7.12253 12.0999L5.30753 11.0824L5.72003 9.04741L4.84003 7.17741L6.35253 5.74741L6.76503 3.71241L8.82753 3.46491L10.34 2.03491L12.155 3.05241L14.2175 2.80491L15.0975 4.70241L16.9125 5.71991L16.5 7.75491L17.38 9.62491L15.8675 11.0549L15.455 13.0899Z" fill="#00B2AE"/>
<path d="M11.9075 15.0974L9.98248 14.0249L7.80998 14.2999L6.90248 12.3199L4.97748 11.2474L5.38998 9.10242L4.48248 7.12242L6.07748 5.63742L6.48998 3.49242L8.66248 3.21742L10.2575 1.73242L12.1825 2.80492L14.355 2.52992L15.2625 4.50992L17.1875 5.58242L16.8025 7.69992L17.71 9.67992L16.115 11.1649L15.7025 13.3099L13.53 13.5849L11.9075 15.0974ZM10.12 13.4474L11.825 14.4099L13.255 13.0624L15.2075 12.8149L15.5925 10.8899L17.0225 9.54242L16.1975 7.75492L16.5825 5.82992L14.85 4.86742L14.025 3.07992L12.1 3.35492L10.3675 2.39242L8.93748 3.73992L6.98498 3.98742L6.59998 5.91242L5.16998 7.25992L5.99498 9.04742L5.60998 10.9724L7.34248 11.9349L8.16748 13.7224L10.12 13.4474Z" fill="#231C1C"/>
<path d="M7.59003 8.3875C7.59003 9.33565 7.96668 10.245 8.63712 10.9154C9.30756 11.5858 10.2169 11.9625 11.165 11.9625C12.1132 11.9625 13.0225 11.5858 13.6929 10.9154C14.3634 10.245 14.74 9.33565 14.74 8.3875C14.74 7.43935 14.3634 6.53004 13.6929 5.85959C13.0225 5.18915 12.1132 4.8125 11.165 4.8125C10.2169 4.8125 9.30756 5.18915 8.63712 5.85959C7.96668 6.53004 7.59003 7.43935 7.59003 8.3875Z" fill="#FAF1C7"/>
<path d="M11.165 12.2376C9.0475 12.2376 7.315 10.5051 7.315 8.3876C7.315 6.2701 9.0475 4.5376 11.165 4.5376C13.2825 4.5376 15.015 6.2701 15.015 8.3876C14.9875 10.5051 13.2825 12.2376 11.165 12.2376ZM11.165 5.0876C9.35 5.0876 7.865 6.5726 7.865 8.3876C7.865 10.2026 9.35 11.6876 11.165 11.6876C12.98 11.6876 14.465 10.2026 14.465 8.3876C14.4375 6.5726 12.98 5.0876 11.165 5.0876Z" fill="#231C1C"/>
</svg>
